<?xml version="1.0" encoding="UTF-8"?>
<svg viewBox="-14.7 -14.7 37.4 29.4" height="29.4mm" width="37.4mm" xmlns:svgjs="http://svgjs.com/svgjs" xmlns:xlink="http://www.w3.org/1999/xlink" version="1.1" xmlns="http://www.w3.org/2000/svg" id="SvgjsSvg1081">
  <defs id="SvgjsDefs1082">
  </defs>
  <defs id="SvgjsDefs1082">
  </defs>
  <g id="SvgjsG1083">
    <g transform="matrix(1,0,0,1,0,0)" id="SvgjsG1084">
      <g fill="none" stroke-width="0.04" stroke="blue" id="SvgjsG1085">
      </g>
      <g fill="none" stroke-width="0.1" stroke="black" id="SvgjsG1086">
        <circle cy="0" cx="0" r="2.05" id="SvgjsCircle1087">
        </circle>
        <path d="M12.473124107086498 -2.8619941514995544  L12.286086624187538 -2.705300323635081 L12.110318595535016 -2.5701114324361143 L11.942387316194456 -2.4517796572485366 L11.788361623139494 -2.3526270053478533 L11.646418257120153 -2.269417812087133 L11.518467124031444 -2.201435237545453 L11.40511964238831 -2.147176229029267 L11.308530718808862 -2.1058250798098843 L11.166937501869192 -2.054968370157413 L11.085261966486392 -2.030427624041349 L11.031096832289737 -2.010981289233519 L10.98261725913116 -1.9902561285257714 L10.939841492967592 -1.9684966149944465 L10.90279899946651 -1.9459386125291944 L10.871492111473389 -1.9227942403366693 L10.845930465758471 -1.8992967517826764 L10.82612239383008 -1.875689314681634 L10.812049094374538 -1.8521913521649667 L10.803689155554332 -1.8290421162613264 L10.801033690504395 -1.8064623353640599 L10.810902943893863 -1.7400019536503315 L10.856321232043223 -1.4292618048095649 L10.892876003131901 -1.117354751810351 L10.900544248929117 -1.0506046019498942 L10.908953308532114 -1.0294814933578034 L10.923019852476182 -1.0092847599221806 L10.942695336101806 -0.9902299089886841 L10.967938518674242 -0.972553582062121 L10.998710769982585 -0.9564725917500714 L11.034941105946247 -0.9422196637715762 L11.076559847746562 -0.9300176093970628 L11.123509841537327 -0.920070716261653 L11.175701579602645 -0.9125991851119295 L11.233054163413314 -0.9078344364050107 L11.318298284891409 -0.9052690800111147 L11.468229514990094 -0.892792291919027 L11.572229715763797 -0.877849201909605 L11.695758240400094 -0.8547755112386338 L11.836944729379919 -0.8222255768370093 L11.99558761643189 -0.7785893145335644 L12.170027605950072 -0.7226799901153839 L12.362863282766217 -0.6518440857528386 L12.567631620806191 -0.5667537576517723 L12.788851302923735 -0.4638080052196716 L12.995068032826167 -0.35763585192502156 A13 13 0 0 1 12.995068032826167 0.35763585192502023 L12.788851302923735 0.46380800521967 L12.567631620806191 0.5667537576517707 L12.362863282766217 0.6518440857528373 L12.17002760595007 0.7226799901153825 L11.99558761643189 0.7785893145335631 L11.836944729379919 0.8222255768370079 L11.695758240400094 0.8547755112386325 L11.572229715763797 0.8778492019096037 L11.468229514990094 0.8927922919190259 L11.318298284891409 0.9052690800111134 L11.233054163413312 0.9078344364050096 L11.175701579602645 0.9125991851119282 L11.123509841537327 0.9200707162616517 L11.076559847746562 0.9300176093970615 L11.034941105946247 0.9422196637715751 L10.998710769982585 0.9564725917500703 L10.967938518674242 0.9725535820621196 L10.942695336101806 0.9902299089886828 L10.923019852476182 1.0092847599221795 L10.908953308532114 1.0294814933578023 L10.900544248929117 1.050604601949893 L10.892876003131901 1.11735475181035 L10.856321232043223 1.4292618048095638 L10.810902943893863 1.7400019536503304 L10.801033690504395 1.8064623353640585 L10.803689155554332 1.8290421162613253 L10.812049094374538 1.8521913521649656 L10.82612239383008 1.8756893146816327 L10.845930465758471 1.899296751782675 L10.871492111473389 1.9227942403366682 L10.90279899946651 1.945938612529193 L10.939841492967592 1.9684966149944452 L10.98261725913116 1.99025612852577 L11.031096832289737 2.0109812892335177 L11.085261966486394 2.0304276240413475 L11.166937501869192 2.0549683701574115 L11.308530718808862 2.105825079809883 L11.40511964238831 2.1471762290292657 L11.518467124031444 2.201435237545452 L11.646418257120153 2.2694178120871316 L11.788361623139494 2.352627005347852 L11.942387316194457 2.4517796572485353 L12.110318595535016 2.570111432436113 L12.286086624187538 2.70530032363508 L12.473124107086498 2.8619941514995526 L12.644834796979934 3.0179213935170894 A13 13 0 0 1 12.459708857600612 3.7088208050796334 L12.233039417042775 3.7580024128621465 L11.992713291460143 3.800184506959526 L11.772899267874465 3.8293775067210207 L11.568300626281731 3.8478901904380924 L11.385334137310288 3.8567460593091982 L11.220802979808507 3.8578356514917216 L11.076002760839838 3.85273472151513 L10.950711458023802 3.843050660452736 L10.846387421870114 3.830567344362679 L10.698335744170565 3.803813938404774 L10.615332282603333 3.7842290802777105 L10.558700732985724 3.7739875331334614 L10.506353610711894 3.767696262224596 L10.458428953782237 3.7651526706349303 L10.415070212158158 3.76616722707793 L10.376385465746415 3.7705573973547386 L10.342499686917764 3.778125996510171 L10.313541674877264 3.788666600793722 L10.289604858775368 3.8019797835425595 L10.270790321431164 3.8178476405032074 L10.257200730790425 3.8360745718471585 L10.232517564085226 3.8985655774511923 L10.116480880998589 4.1903835843977335 L9.992184714891303 4.4787804014589305 L9.965450535623928 4.5404218498431135 L9.962171440566014 4.56291952829226 L9.964255058247216 4.587443684493005 L9.971767101432004 4.613783411279552 L9.984790175348818 4.641713150729771 L10.003399231557458 4.671025822512189 L10.027649158900386 4.701484388201707 L10.057591019385749 4.7328610481685525 L10.093277460148368 4.764950307207929 L10.134741065605734 4.797516712021416 L10.18202748580499 4.83031939734959 L10.254568382331358 4.875163121895513 L10.378174242371427 4.9609339523902385 L10.460769513235425 5.0258751483362865 L10.556211508326985 5.1076218129345605 L10.662207627253832 5.206404127507796 L10.777778266418824 5.323515682714767 L10.900893066568367 5.459154572728427 L11.032475709265842 5.616918103814508 L11.167265127848646 5.792992658586371 L11.307374116163508 5.992756136463048 L11.432876966297043 6.187812283341926 A13 13 0 0 1 11.075241114372023 6.807255749484242 L10.843566110943836 6.796095166460689 L10.600511370196873 6.774638962219819 L10.380631623513004 6.745945178951708 L10.178213076452984 6.710873033221645 L9.99918895188526 6.672071933717126 L9.839982050416822 6.630540601872124 L9.701435997088351 6.588136427465535 L9.58292031132582 6.546354567427511 L9.485381950452402 6.507295562599857 L9.349299302320244 6.4431351629958975 L9.27419304939998 6.402734766063725 L9.222141880493805 6.378184867581231 L9.173206743886714 6.358559534329399 L9.127573409988685 6.343698799578012 L9.08542949512881 6.333456717744541 L9.046926639807387 6.327684947470396 L9.012236593286698 6.326225367944471 L8.98153719244332 6.328911924822257 L8.954970298325037 6.335576167983178 L8.93268994720821 6.346033780239856 L8.914845933674032 6.3601223990860065 L8.87482996308095 6.414095601672971 L8.687219076189024 6.665937647645491 L8.492515610434895 6.912337366442673 L8.450738395426365 6.964959118657238 L8.441748205169837 6.985841515051125 L8.437413506610401 7.010069310831981 L8.437852360195631 7.037455793036359 L8.443202935135087 7.0678044692483 L8.453591225409747 7.100934714118652 L8.469131599628962 7.136631772388581 L8.489932338787792 7.174688822332663 L8.51609748218612 7.214920996906565 L8.547719443752204 7.257109299156278 L8.584904658561985 7.301032886208684 L8.643367374013152 7.36312356346442 L8.740562342060231 7.477963374446183 L8.803535228994535 7.562068981935574 L8.874567523294386 7.665732402516314 L8.951385167721373 7.788582605628434 L9.032707131962434 7.931615563830297 L9.116520969033196 8.094497125756366 L9.20278783543835 8.280941088813996 L9.287412967825063 8.485902117228013 L9.371045265543223 8.715121694224353 L9.441787464083522 8.936013991900301 A13 13 0 0 1 8.936013991900303 9.44178746408352 L8.715121694224354 9.37104526554322 L8.485902117228015 9.287412967825063 L8.280941088813998 9.202787835438349 L8.094497125756366 9.116520969033195 L7.931615563830298 9.032707131962432 L7.788582605628434 8.951385167721373 L7.665732402516316 8.874567523294385 L7.5620689819355755 8.803535228994534 L7.477963374446185 8.74056234206023 L7.363123563464422 8.643367374013152 L7.301032886208685 8.584904658561983 L7.25710929915628 8.547719443752202 L7.214920996906566 8.51609748218612 L7.174688822332664 8.489932338787792 L7.136631772388583 8.46913159962896 L7.100934714118654 8.453591225409745 L7.067804469248301 8.443202935135085 L7.037455793036361 8.43785236019563 L7.010069310831982 8.437413506610401 L6.985841515051127 8.441748205169837 L6.964959118657239 8.450738395426365 L6.912337366442674 8.492515610434895 L6.665937647645492 8.687219076189024 L6.414095601672972 8.87482996308095 L6.360122399086007 8.914845933674032 L6.346033780239858 8.93268994720821 L6.335576167983179 8.954970298325033 L6.3289119248222585 8.981537192443318 L6.326225367944472 9.012236593286696 L6.327684947470398 9.046926639807385 L6.333456717744543 9.085429495128809 L6.3436987995780125 9.127573409988685 L6.358559534329401 9.173206743886714 L6.378184867581233 9.222141880493803 L6.402734766063726 9.274193049399978 L6.443135162995899 9.349299302320244 L6.507295562599859 9.4853819504524 L6.546354567427513 9.582920311325818 L6.588136427465537 9.70143599708835 L6.630540601872125 9.839982050416822 L6.672071933717127 9.999188951885259 L6.710873033221647 10.178213076452982 L6.74594517895171 10.380631623513002 L6.774638962219821 10.600511370196873 L6.796095166460691 10.843566110943836 L6.807255749484244 11.075241114372021 A13 13 0 0 1 6.187812283341928 11.432876966297043 L5.992756136463049 11.307374116163505 L5.792992658586373 11.167265127848644 L5.61691810381451 11.03247570926584 L5.459154572728429 10.900893066568365 L5.323515682714769 10.777778266418823 L5.206404127507797 10.66220762725383 L5.107621812934561 10.556211508326983 L5.025875148336288 10.460769513235423 L4.96093395239024 10.378174242371426 L4.875163121895514 10.254568382331357 L4.830319397349591 10.182027485804989 L4.797516712021416 10.134741065605732 L4.76495030720793 10.093277460148366 L4.732861048168554 10.057591019385749 L4.701484388201709 10.027649158900385 L4.67102582251219 10.003399231557458 L4.641713150729772 9.984790175348817 L4.613783411279553 9.971767101432002 L4.587443684493007 9.964255058247215 L4.5629195282922606 9.962171440566012 L4.540421849843115 9.965450535623926 L4.478780401458932 9.992184714891302 L4.190383584397734 10.116480880998587 L3.898565577451194 10.232517564085224 L3.8360745718471603 10.257200730790423 L3.8178476405032082 10.270790321431162 L3.8019797835425613 10.289604858775366 L3.788666600793723 10.313541674877262 L3.7781259965101723 10.342499686917762 L3.7705573973547395 10.376385465746415 L3.7661672270779323 10.415070212158156 L3.765152670634932 10.458428953782237 L3.767696262224597 10.506353610711892 L3.7739875331334622 10.558700732985722 L3.7842290802777114 10.615332282603331 L3.803813938404775 10.698335744170564 L3.830567344362681 10.846387421870112 L3.8430506604527377 10.9507114580238 L3.852734721515131 11.076002760839836 L3.8578356514917225 11.220802979808505 L3.8567460593092 11.385334137310286 L3.8478901904380947 11.56830062628173 L3.8293775067210225 11.772899267874463 L3.800184506959528 11.992713291460142 L3.7580024128621474 12.233039417042775 L3.708820805079635 12.459708857600612 A13 13 0 0 1 3.017921393517091 12.644834796979934 L2.8619941514995553 12.473124107086498 L2.7053003236350817 12.286086624187538 L2.570111432436115 12.110318595535016 L2.451779657248537 11.942387316194456 L2.3526270053478537 11.788361623139494 L2.2694178120871333 11.646418257120153 L2.2014352375454536 11.518467124031444 L2.1471762290292675 11.40511964238831 L2.1058250798098848 11.308530718808862 L2.0549683701574133 11.166937501869192 L2.0304276240413492 11.085261966486392 L2.0109812892335195 11.031096832289737 L1.990256128525772 10.98261725913116 L1.9684966149944474 10.939841492967592 L1.9459386125291949 10.90279899946651 L1.92279424033667 10.871492111473389 L1.8992967517826769 10.845930465758471 L1.8756893146816347 10.82612239383008 L1.8521913521649673 10.812049094374538 L1.829042116261327 10.803689155554332 L1.8064623353640605 10.801033690504395 L1.7400019536503322 10.810902943893863 L1.4292618048095656 10.856321232043223 L1.1173547518103517 10.892876003131901 L1.050604601949895 10.900544248929117 L1.029481493357804 10.908953308532114 L1.0092847599221813 10.923019852476182 L0.9902299089886848 10.942695336101806 L0.9725535820621214 10.967938518674242 L0.956472591750072 10.998710769982585 L0.9422196637715768 11.034941105946247 L0.9300176093970635 11.076559847746562 L0.9200707162616537 11.123509841537327 L0.91259918511193 11.175701579602645 L0.9078344364050114 11.233054163413314 L0.9052690800111152 11.318298284891409 L0.8927922919190276 11.468229514990094 L0.8778492019096057 11.572229715763797 L0.8547755112386345 11.695758240400094 L0.8222255768370099 11.836944729379919 L0.7785893145335651 11.99558761643189 L0.7226799901153845 12.170027605950072 L0.6518440857528393 12.362863282766217 L0.5667537576517729 12.567631620806191 L0.46380800521967225 12.788851302923735 L0.35763585192502223 12.995068032826167 A13 13 0 0 1 -0.35763585192501934 12.995068032826167 L-0.46380800521966936 12.788851302923735 L-0.56675375765177 12.56763162080619 L-0.6518440857528366 12.362863282766217 L-0.7226799901153819 12.17002760595007 L-0.7785893145335624 11.99558761643189 L-0.8222255768370073 11.836944729379919 L-0.8547755112386318 11.695758240400094 L-0.8778492019096032 11.572229715763797 L-0.8927922919190252 11.468229514990094 L-0.9052690800111127 11.318298284891409 L-0.9078344364050089 11.233054163413312 L-0.9125991851119275 11.175701579602645 L-0.920070716261651 11.123509841537327 L-0.930017609397061 11.076559847746562 L-0.9422196637715744 11.034941105946247 L-0.9564725917500696 10.998710769982585 L-0.972553582062119 10.967938518674242 L-0.9902299089886824 10.942695336101806 L-1.0092847599221788 10.923019852476182 L-1.0294814933578016 10.908953308532114 L-1.0506046019498925 10.900544248929117 L-1.1173547518103493 10.892876003131901 L-1.429261804809563 10.856321232043223 L-1.7400019536503297 10.810902943893863 L-1.806462335364058 10.801033690504395 L-1.8290421162613246 10.803689155554332 L-1.8521913521649649 10.812049094374538 L-1.8756893146816322 10.82612239383008 L-1.8992967517826744 10.845930465758471 L-1.9227942403366676 10.871492111473389 L-1.9459386125291926 10.90279899946651 L-1.9684966149944447 10.939841492967592 L-1.9902561285257694 10.98261725913116 L-2.0109812892335173 11.031096832289737 L-2.030427624041347 11.085261966486394 L-2.054968370157411 11.166937501869192 L-2.1058250798098825 11.308530718808862 L-2.1471762290292653 11.40511964238831 L-2.201435237545451 11.518467124031444 L-2.2694178120871307 11.646418257120153 L-2.352627005347851 11.788361623139494 L-2.4517796572485344 11.942387316194457 L-2.5701114324361125 12.110318595535016 L-2.705300323635079 12.28608662418754 L-2.861994151499552 12.473124107086498 L-3.0179213935170885 12.644834796979934 A13 13 0 0 1 -3.70882080507963 12.459708857600614 L-3.758002412862143 12.233039417042777 L-3.8001845069595226 11.992713291460145 L-3.8293775067210176 11.772899267874466 L-3.847890190438089 11.568300626281733 L-3.8567460593091956 11.385334137310288 L-3.857835651491718 11.220802979808507 L-3.8527347215151266 11.07600276083984 L-3.8430506604527332 10.950711458023802 L-3.8305673443626755 10.846387421870116 L-3.8038139384047707 10.698335744170567 L-3.784229080277708 10.615332282603335 L-3.773987533133458 10.558700732985724 L-3.7676962622245926 10.506353610711894 L-3.7651526706349276 10.458428953782239 L-3.7661672270779274 10.415070212158156 L-3.770557397354735 10.376385465746417 L-3.7781259965101683 10.342499686917764 L-3.7886666007937184 10.313541674877266 L-3.801979783542557 10.289604858775368 L-3.8178476405032047 10.270790321431166 L-3.836074571847156 10.257200730790425 L-3.8985655774511896 10.232517564085226 L-4.190383584397731 10.11648088099859 L-4.478780401458928 9.992184714891303 L-4.540421849843111 9.965450535623928 L-4.562919528292257 9.962171440566015 L-4.587443684493003 9.964255058247216 L-4.613783411279549 9.971767101432006 L-4.641713150729768 9.984790175348818 L-4.671025822512186 10.00339923155746 L-4.701484388201704 10.027649158900388 L-4.73286104816855 10.05759101938575 L-4.764950307207926 10.093277460148368 L-4.797516712021412 10.134741065605734 L-4.830319397349587 10.182027485804992 L-4.875163121895509 10.25456838233136 L-4.960933952390235 10.37817424237143 L-5.025875148336284 10.460769513235425 L-5.107621812934557 10.556211508326987 L-5.206404127507793 10.662207627253832 L-5.323515682714765 10.777778266418824 L-5.459154572728424 10.900893066568369 L-5.6169181038145055 11.032475709265844 L-5.7929926585863685 11.167265127848648 L-5.992756136463044 11.30737411616351 L-6.1878122833419225 11.432876966297044 A13 13 0 0 1 -6.807255749484241 11.075241114372023 L-6.796095166460688 10.843566110943838 L-6.774638962219818 10.600511370196875 L-6.7459451789517075 10.380631623513006 L-6.7108730332216435 10.178213076452984 L-6.672071933717124 9.99918895188526 L-6.630540601872122 9.839982050416824 L-6.5881364274655345 9.701435997088351 L-6.54635456742751 9.58292031132582 L-6.5072955625998565 9.485381950452402 L-6.443135162995897 9.349299302320246 L-6.402734766063724 9.274193049399981 L-6.37818486758123 9.222141880493806 L-6.358559534329398 9.173206743886716 L-6.34369879957801 9.127573409988686 L-6.333456717744539 9.085429495128812 L-6.327684947470395 9.046926639807388 L-6.32622536794447 9.0122365932867 L-6.328911924822256 8.981537192443321 L-6.335576167983176 8.954970298325035 L-6.346033780239855 8.932689947208212 L-6.360122399086005 8.914845933674034 L-6.41409560167297 8.874829963080952 L-6.66593764764549 8.687219076189026 L-6.912337366442672 8.492515610434896 L-6.964959118657236 8.450738395426367 L-6.985841515051124 8.441748205169839 L-7.010069310831979 8.437413506610403 L-7.037455793036358 8.437852360195633 L-7.0678044692482995 8.443202935135089 L-7.100934714118651 8.453591225409749 L-7.136631772388581 8.469131599628964 L-7.174688822332661 8.489932338787794 L-7.214920996906564 8.516097482186122 L-7.257109299156277 8.547719443752205 L-7.3010328862086835 8.584904658561987 L-7.363123563464419 8.643367374013154 L-7.477963374446182 8.740562342060231 L-7.562068981935573 8.803535228994535 L-7.665732402516313 8.874567523294386 L-7.788582605628433 8.951385167721375 L-7.931615563830295 9.032707131962434 L-8.094497125756364 9.116520969033196 L-8.280941088813995 9.202787835438352 L-8.485902117228012 9.287412967825064 L-8.71512169422435 9.371045265543225 L-8.9360139919003 9.441787464083525 A13 13 0 0 1 -9.441787464083518 8.936013991900305 L-9.371045265543218 8.715121694224356 L-9.28741296782506 8.485902117228017 L-9.202787835438349 8.280941088814 L-9.116520969033191 8.09449712575637 L-9.03270713196243 7.9316155638303005 L-8.951385167721371 7.788582605628438 L-8.874567523294383 7.665732402516317 L-8.803535228994532 7.562068981935578 L-8.740562342060228 7.477963374446188 L-8.643367374013149 7.363123563464423 L-8.584904658561983 7.301032886208688 L-8.547719443752202 7.257109299156283 L-8.516097482186119 7.214920996906569 L-8.489932338787789 7.174688822332667 L-8.46913159962896 7.1366317723885855 L-8.453591225409745 7.100934714118656 L-8.443202935135083 7.067804469248304 L-8.43785236019563 7.037455793036362 L-8.437413506610397 7.010069310831984 L-8.441748205169835 6.985841515051129 L-8.450738395426363 6.964959118657242 L-8.492515610434893 6.912337366442677 L-8.687219076189022 6.665937647645494 L-8.874829963080948 6.414095601672975 L-8.91484593367403 6.36012239908601 L-8.932689947208209 6.34603378023986 L-8.954970298325033 6.335576167983183 L-8.981537192443318 6.32891192482226 L-9.012236593286694 6.326225367944475 L-9.046926639807385 6.3276849474704004 L-9.085429495128809 6.3334567177445455 L-9.127573409988685 6.343698799578015 L-9.173206743886713 6.3585595343294035 L-9.222141880493803 6.378184867581235 L-9.274193049399978 6.402734766063729 L-9.349299302320244 6.443135162995901 L-9.485381950452398 6.507295562599862 L-9.582920311325816 6.546354567427516 L-9.701435997088348 6.588136427465539 L-9.83998205041682 6.630540601872127 L-9.999188951885257 6.672071933717129 L-10.178213076452982 6.71087303322165 L-10.380631623513002 6.745945178951713 L-10.600511370196871 6.774638962219823 L-10.843566110943835 6.7960951664606934 L-11.07524111437202 6.807255749484247 A13 13 0 0 1 -11.432876966297043 6.187812283341929 L-11.307374116163505 5.99275613646305 L-11.167265127848644 5.792992658586374 L-11.03247570926584 5.616918103814511 L-10.900893066568365 5.45915457272843 L-10.777778266418823 5.32351568271477 L-10.66220762725383 5.206404127507798 L-10.556211508326983 5.107621812934562 L-10.460769513235423 5.025875148336288 L-10.378174242371426 4.96093395239024 L-10.254568382331357 4.875163121895515 L-10.182027485804989 4.830319397349592 L-10.134741065605732 4.797516712021418 L-10.093277460148366 4.764950307207931 L-10.057591019385749 4.732861048168554 L-10.027649158900385 4.701484388201709 L-10.003399231557458 4.671025822512191 L-9.984790175348817 4.641713150729773 L-9.971767101432002 4.613783411279554 L-9.964255058247215 4.587443684493007 L-9.962171440566012 4.562919528292261 L-9.965450535623926 4.540421849843116 L-9.992184714891302 4.478780401458932 L-10.116480880998587 4.190383584397735 L-10.232517564085224 3.898565577451194 L-10.257200730790423 3.836074571847161 L-10.270790321431162 3.817847640503209 L-10.289604858775366 3.8019797835425613 L-10.313541674877262 3.7886666007937237 L-10.342499686917762 3.7781259965101732 L-10.376385465746415 3.7705573973547404 L-10.415070212158156 3.7661672270779323 L-10.458428953782237 3.765152670634932 L-10.506353610711892 3.767696262224598 L-10.558700732985722 3.773987533133463 L-10.615332282603331 3.7842290802777123 L-10.698335744170564 3.803813938404776 L-10.846387421870112 3.830567344362681 L-10.9507114580238 3.8430506604527377 L-11.076002760839836 3.852734721515132 L-11.220802979808505 3.8578356514917234 L-11.385334137310286 3.856746059309201 L-11.56830062628173 3.8478901904380955 L-11.772899267874463 3.8293775067210234 L-11.992713291460142 3.800184506959529 L-12.233039417042775 3.7580024128621483 L-12.459708857600612 3.708820805079636 A13 13 0 0 1 -12.644834796979934 3.017921393517092 L-12.473124107086498 2.8619941514995557 L-12.286086624187538 2.7053003236350825 L-12.110318595535016 2.570111432436116 L-11.942387316194456 2.451779657248538 L-11.788361623139494 2.3526270053478546 L-11.646418257120153 2.2694178120871342 L-11.518467124031444 2.2014352375454544 L-11.40511964238831 2.1471762290292684 L-11.308530718808862 2.105825079809885 L-11.166937501869192 2.0549683701574137 L-11.085261966486392 2.03042762404135 L-11.031096832289737 2.01098128923352 L-10.98261725913116 1.9902561285257725 L-10.939841492967592 1.9684966149944478 L-10.90279899946651 1.9459386125291958 L-10.871492111473389 1.9227942403366707 L-10.845930465758471 1.8992967517826775 L-10.82612239383008 1.8756893146816351 L-10.812049094374538 1.852191352164968 L-10.803689155554332 1.8290421162613277 L-10.801033690504395 1.806462335364061 L-10.810902943893863 1.7400019536503328 L-10.856321232043223 1.4292618048095662 L-10.892876003131901 1.1173547518103524 L-10.900544248929117 1.0506046019498954 L-10.908953308532114 1.0294814933578047 L-10.923019852476182 1.009284759922182 L-10.942695336101806 0.9902299089886852 L-10.967938518674242 0.9725535820621221 L-10.998710769982585 0.9564725917500727 L-11.034941105946247 0.9422196637715775 L-11.076559847746562 0.9300176093970641 L-11.123509841537327 0.9200707162616542 L-11.175701579602645 0.9125991851119306 L-11.233054163413314 0.907834436405012 L-11.318298284891409 0.9052690800111158 L-11.468229514990094 0.8927922919190283 L-11.572229715763797 0.8778492019096064 L-11.695758240400094 0.8547755112386352 L-11.836944729379919 0.8222255768370106 L-11.99558761643189 0.7785893145335657 L-12.170027605950072 0.7226799901153852 L-12.362863282766217 0.6518440857528401 L-12.567631620806191 0.5667537576517736 L-12.788851302923735 0.4638080052196729 L-12.995068032826167 0.3576358519250231 A13 13 0 0 1 -12.995068032826168 -0.35763585192501557 L-12.788851302923735 -0.4638080052196658 L-12.56763162080619 -0.5667537576517665 L-12.362863282766217 -0.6518440857528331 L-12.170027605950072 -0.7226799901153784 L-11.995587616431893 -0.778589314533559 L-11.83694472937992 -0.8222255768370038 L-11.695758240400094 -0.8547755112386287 L-11.572229715763797 -0.8778492019095998 L-11.468229514990096 -0.8927922919190219 L-11.31829828489141 -0.9052690800111096 L-11.233054163413314 -0.9078344364050057 L-11.175701579602645 -0.9125991851119243 L-11.123509841537327 -0.920070716261648 L-11.076559847746564 -0.9300176093970578 L-11.034941105946249 -0.9422196637715712 L-10.998710769982587 -0.9564725917500665 L-10.967938518674243 -0.9725535820621161 L-10.942695336101808 -0.9902299089886791 L-10.923019852476184 -1.0092847599221755 L-10.908953308532116 -1.0294814933577985 L-10.900544248929119 -1.0506046019498894 L-10.892876003131903 -1.1173547518103464 L-10.856321232043225 -1.42926180480956 L-10.810902943893865 -1.7400019536503268 L-10.801033690504397 -1.806462335364055 L-10.803689155554334 -1.8290421162613215 L-10.81204909437454 -1.852191352164962 L-10.826122393830081 -1.8756893146816291 L-10.845930465758473 -1.8992967517826715 L-10.87149211147339 -1.9227942403366645 L-10.902798999466512 -1.9459386125291895 L-10.939841492967593 -1.9684966149944418 L-10.98261725913116 -1.9902561285257665 L-11.031096832289741 -2.010981289233514 L-11.085261966486396 -2.030427624041344 L-11.166937501869194 -2.0549683701574075 L-11.308530718808864 -2.105825079809879 L-11.40511964238831 -2.147176229029262 L-11.518467124031444 -2.201435237545448 L-11.646418257120155 -2.2694178120871276 L-11.788361623139496 -2.352627005347848 L-11.94238731619446 -2.4517796572485313 L-12.110318595535016 -2.570111432436109 L-12.28608662418754 -2.705300323635076 L-12.473124107086498 -2.8619941514995486 L-12.644834796979936 -3.017921393517085 A13 13 0 0 1 -12.459708857600614 -3.70882080507963 L-12.233039417042777 -3.758002412862142 L-11.992713291460145 -3.8001845069595226 L-11.772899267874466 -3.8293775067210167 L-11.568300626281733 -3.847890190438089 L-11.385334137310288 -3.8567460593091947 L-11.220802979808507 -3.857835651491718 L-11.07600276083984 -3.8527347215151257 L-10.950711458023802 -3.8430506604527324 L-10.846387421870116 -3.8305673443626755 L-10.698335744170567 -3.8038139384047707 L-10.615332282603335 -3.784229080277707 L-10.558700732985724 -3.773987533133457 L-10.506353610711894 -3.7676962622245918 L-10.458428953782239 -3.7651526706349268 L-10.415070212158156 -3.7661672270779265 L-10.376385465746417 -3.770557397354735 L-10.342499686917764 -3.7781259965101675 L-10.313541674877266 -3.7886666007937175 L-10.289604858775368 -3.801979783542556 L-10.270790321431166 -3.817847640503204 L-10.257200730790425 -3.836074571847155 L-10.232517564085226 -3.8985655774511887 L-10.11648088099859 -4.19038358439773 L-9.992184714891303 -4.478780401458927 L-9.965450535623928 -4.54042184984311 L-9.962171440566015 -4.562919528292256 L-9.964255058247216 -4.587443684493002 L-9.971767101432006 -4.613783411279548 L-9.984790175348818 -4.6417131507297675 L-10.00339923155746 -4.671025822512186 L-10.027649158900388 -4.7014843882017034 L-10.05759101938575 -4.732861048168549 L-10.093277460148368 -4.764950307207925 L-10.134741065605734 -4.7975167120214115 L-10.182027485804992 -4.830319397349586 L-10.25456838233136 -4.875163121895509 L-10.37817424237143 -4.960933952390235 L-10.460769513235425 -5.025875148336283 L-10.556211508326987 -5.107621812934556 L-10.662207627253832 -5.206404127507793 L-10.777778266418824 -5.323515682714763 L-10.900893066568369 -5.459154572728424 L-11.032475709265844 -5.616918103814505 L-11.167265127848648 -5.7929926585863685 L-11.30737411616351 -5.9927561364630435 L-11.432876966297044 -6.1878122833419225 A13 13 0 0 1 -11.075241114372028 -6.807255749484233 L-10.843566110943843 -6.79609516646068 L-10.60051137019688 -6.77463896221981 L-10.38063162351301 -6.7459451789516995 L-10.17821307645299 -6.710873033221637 L-9.999188951885264 -6.672071933717118 L-9.839982050416829 -6.630540601872116 L-9.701435997088357 -6.5881364274655265 L-9.582920311325825 -6.546354567427503 L-9.485381950452407 -6.507295562599849 L-9.34929930232025 -6.44313516299589 L-9.274193049399987 -6.402734766063717 L-9.222141880493812 -6.378184867581223 L-9.173206743886722 -6.358559534329392 L-9.127573409988692 -6.343698799578004 L-9.085429495128816 -6.333456717744533 L-9.046926639807392 -6.327684947470389 L-9.012236593286703 -6.326225367944464 L-8.981537192443326 -6.32891192482225 L-8.95497029832504 -6.33557616798317 L-8.932689947208218 -6.346033780239848 L-8.914845933674039 -6.3601223990859985 L-8.874829963080957 -6.4140956016729636 L-8.68721907618903 -6.6659376476454835 L-8.492515610434902 -6.9123373664426655 L-8.450738395426372 -6.96495911865723 L-8.441748205169844 -6.985841515051119 L-8.437413506610408 -7.010069310831973 L-8.437852360195638 -7.037455793036352 L-8.443202935135092 -7.067804469248293 L-8.453591225409752 -7.100934714118645 L-8.469131599628968 -7.136631772388575 L-8.4899323387878 -7.174688822332655 L-8.516097482186128 -7.2149209969065575 L-8.54771944375221 -7.257109299156272 L-8.584904658561992 -7.301032886208678 L-8.64336737401316 -7.363123563464413 L-8.740562342060237 -7.477963374446177 L-8.80353522899454 -7.5620689819355675 L-8.874567523294392 -7.665732402516307 L-8.95138516772138 -7.788582605628426 L-9.032707131962441 -7.931615563830289 L-9.116520969033202 -8.094497125756359 L-9.20278783543836 -8.280941088813988 L-9.28741296782507 -8.485902117228004 L-9.37104526554323 -8.715121694224344 L-9.44178746408353 -8.936013991900293 A13 13 0 0 1 -8.936013991900303 -9.44178746408352 L-8.715121694224354 -9.37104526554322 L-8.485902117228017 -9.287412967825063 L-8.280941088814 -9.202787835438349 L-8.094497125756368 -9.116520969033193 L-7.9316155638303 -9.032707131962432 L-7.788582605628436 -8.951385167721373 L-7.6657324025163165 -8.874567523294385 L-7.562068981935576 -8.803535228994534 L-7.477963374446186 -8.74056234206023 L-7.3631235634644225 -8.643367374013152 L-7.301032886208687 -8.584904658561983 L-7.257109299156281 -8.547719443752202 L-7.214920996906567 -8.51609748218612 L-7.174688822332665 -8.48993233878779 L-7.136631772388584 -8.46913159962896 L-7.1009347141186545 -8.453591225409745 L-7.067804469248303 -8.443202935135085 L-7.0374557930363615 -8.43785236019563 L-7.010069310831983 -8.4374135066104 L-6.985841515051128 -8.441748205169837 L-6.96495911865724 -8.450738395426365 L-6.912337366442675 -8.492515610434895 L-6.665937647645493 -8.687219076189024 L-6.414095601672973 -8.87482996308095 L-6.360122399086008 -8.914845933674032 L-6.346033780239859 -8.93268994720821 L-6.33557616798318 -8.954970298325035 L-6.328911924822259 -8.981537192443318 L-6.326225367944474 -9.012236593286696 L-6.327684947470399 -9.046926639807385 L-6.333456717744544 -9.085429495128809 L-6.343698799578013 -9.127573409988686 L-6.358559534329402 -9.173206743886714 L-6.378184867581234 -9.222141880493803 L-6.402734766063728 -9.274193049399978 L-6.4431351629959 -9.349299302320244 L-6.50729556259986 -9.4853819504524 L-6.546354567427514 -9.582920311325818 L-6.588136427465538 -9.70143599708835 L-6.630540601872127 -9.839982050416822 L-6.672071933717128 -9.999188951885259 L-6.710873033221649 -10.178213076452984 L-6.745945178951712 -10.380631623513002 L-6.774638962219822 -10.600511370196873 L-6.796095166460692 -10.843566110943836 L-6.807255749484246 -11.075241114372021 A13 13 0 0 1 -6.187812283341932 -11.43287696629704 L-5.992756136463053 -11.307374116163505 L-5.792992658586377 -11.167265127848642 L-5.616918103814514 -11.03247570926584 L-5.459154572728432 -10.900893066568365 L-5.323515682714772 -10.77777826641882 L-5.206404127507802 -10.662207627253828 L-5.107621812934566 -10.55621150832698 L-5.025875148336292 -10.460769513235421 L-4.960933952390244 -10.378174242371426 L-4.875163121895518 -10.254568382331357 L-4.830319397349595 -10.182027485804987 L-4.7975167120214195 -10.13474106560573 L-4.7649503072079336 -10.093277460148364 L-4.732861048168558 -10.057591019385745 L-4.701484388201712 -10.027649158900383 L-4.671025822512194 -10.003399231557456 L-4.641713150729776 -9.984790175348815 L-4.613783411279556 -9.971767101432 L-4.58744368449301 -9.964255058247213 L-4.562919528292264 -9.962171440566012 L-4.540421849843119 -9.965450535623924 L-4.478780401458936 -9.9921847148913 L-4.190383584397738 -10.116480880998587 L-3.8985655774511976 -10.232517564085223 L-3.836074571847164 -10.257200730790421 L-3.817847640503212 -10.270790321431162 L-3.801979783542565 -10.289604858775364 L-3.7886666007937264 -10.313541674877264 L-3.7781259965101768 -10.34249968691776 L-3.770557397354743 -10.376385465746413 L-3.766167227077936 -10.415070212158154 L-3.7651526706349356 -10.458428953782237 L-3.767696262224601 -10.50635361071189 L-3.773987533133466 -10.55870073298572 L-3.784229080277716 -10.615332282603333 L-3.8038139384047795 -10.698335744170564 L-3.8305673443626844 -10.846387421870112 L-3.8430506604527417 -10.950711458023799 L-3.8527347215151355 -11.076002760839836 L-3.857835651491727 -11.220802979808504 L-3.856746059309204 -11.385334137310284 L-3.847890190438098 -11.56830062628173 L-3.829377506721027 -11.772899267874463 L-3.800184506959533 -11.992713291460143 L-3.758002412862152 -12.233039417042775 L-3.70882080507964 -12.45970885760061 A13 13 0 0 1 -3.0179213935170903 -12.644834796979934 L-2.861994151499554 -12.473124107086498 L-2.7053003236350808 -12.286086624187538 L-2.5701114324361143 -12.110318595535016 L-2.451779657248536 -11.942387316194456 L-2.352627005347853 -11.788361623139494 L-2.2694178120871324 -11.646418257120153 L-2.2014352375454527 -11.518467124031444 L-2.1471762290292666 -11.40511964238831 L-2.105825079809884 -11.308530718808862 L-2.0549683701574124 -11.166937501869192 L-2.0304276240413484 -11.085261966486394 L-2.0109812892335186 -11.031096832289737 L-1.990256128525771 -10.98261725913116 L-1.9684966149944465 -10.939841492967592 L-1.945938612529194 -10.90279899946651 L-1.9227942403366691 -10.871492111473389 L-1.899296751782676 -10.845930465758471 L-1.8756893146816338 -10.82612239383008 L-1.8521913521649664 -10.812049094374538 L-1.8290421162613262 -10.803689155554332 L-1.8064623353640596 -10.801033690504395 L-1.7400019536503313 -10.810902943893863 L-1.4292618048095647 -10.856321232043223 L-1.1173547518103508 -10.892876003131901 L-1.050604601949894 -10.900544248929117 L-1.0294814933578031 -10.908953308532114 L-1.0092847599221804 -10.923019852476182 L-0.9902299089886839 -10.942695336101806 L-0.9725535820621205 -10.967938518674242 L-0.9564725917500712 -10.998710769982585 L-0.942219663771576 -11.034941105946247 L-0.9300176093970626 -11.076559847746562 L-0.9200707162616526 -11.123509841537327 L-0.9125991851119291 -11.175701579602645 L-0.9078344364050105 -11.233054163413312 L-0.9052690800111143 -11.318298284891409 L-0.8927922919190268 -11.468229514990094 L-0.8778492019096048 -11.572229715763797 L-0.8547755112386336 -11.695758240400094 L-0.822225576837009 -11.836944729379919 L-0.7785893145335642 -11.99558761643189 L-0.7226799901153836 -12.170027605950072 L-0.6518440857528384 -12.362863282766217 L-0.5667537576517718 -12.567631620806191 L-0.46380800521967114 -12.788851302923735 L-0.35763585192502134 -12.995068032826167 A13 13 0 0 1 0.3576358519250178 -12.995068032826168 L0.46380800521966803 -12.788851302923735 L0.5667537576517685 -12.56763162080619 L0.6518440857528351 -12.362863282766217 L0.7226799901153804 -12.170027605950072 L0.778589314533561 -11.995587616431893 L0.8222255768370058 -11.83694472937992 L0.8547755112386305 -11.695758240400094 L0.8778492019096018 -11.572229715763797 L0.8927922919190239 -11.468229514990096 L0.9052690800111114 -11.31829828489141 L0.9078344364050075 -11.233054163413314 L0.9125991851119263 -11.175701579602647 L0.9200707162616498 -11.123509841537327 L0.9300176093970596 -11.076559847746564 L0.9422196637715732 -11.034941105946249 L0.9564725917500683 -10.998710769982587 L0.9725535820621178 -10.967938518674243 L0.9902299089886809 -10.942695336101808 L1.0092847599221777 -10.923019852476184 L1.0294814933578005 -10.908953308532116 L1.0506046019498911 -10.900544248929119 L1.1173547518103482 -10.892876003131903 L1.429261804809562 -10.856321232043225 L1.7400019536503286 -10.810902943893865 L1.8064623353640568 -10.801033690504397 L1.8290421162613235 -10.803689155554334 L1.8521913521649638 -10.81204909437454 L1.875689314681631 -10.826122393830081 L1.8992967517826733 -10.845930465758473 L1.9227942403366662 -10.87149211147339 L1.9459386125291915 -10.902798999466512 L1.9684966149944436 -10.939841492967593 L1.9902561285257683 -10.98261725913116 L2.010981289233516 -11.03109683228974 L2.0304276240413457 -11.085261966486396 L2.0549683701574093 -11.166937501869194 L2.1058250798098808 -11.308530718808864 L2.147176229029264 -11.40511964238831 L2.2014352375454496 -11.518467124031444 L2.26941781208713 -11.646418257120155 L2.35262700534785 -11.788361623139496 L2.451779657248533 -11.94238731619446 L2.570111432436111 -12.110318595535016 L2.705300323635078 -12.28608662418754 L2.861994151499551 -12.473124107086498 L3.017921393517087 -12.644834796979936 A13 13 0 0 1 3.7088208050796254 -12.459708857600615 L3.7580024128621385 -12.233039417042779 L3.8001845069595186 -11.992713291460147 L3.829377506721013 -11.772899267874468 L3.8478901904380853 -11.568300626281735 L3.856746059309191 -11.38533413731029 L3.857835651491714 -11.220802979808507 L3.852734721515123 -11.07600276083984 L3.843050660452729 -10.950711458023804 L3.830567344362672 -10.846387421870118 L3.803813938404767 -10.698335744170567 L3.784229080277703 -10.615332282603337 L3.7739875331334543 -10.558700732985725 L3.767696262224589 -10.506353610711896 L3.765152670634924 -10.45842895378224 L3.766167227077924 -10.415070212158158 L3.7705573973547315 -10.376385465746418 L3.778125996510164 -10.342499686917765 L3.7886666007937144 -10.313541674877266 L3.8019797835425533 -10.28960485877537 L3.8178476405032002 -10.270790321431168 L3.8360745718471523 -10.257200730790426 L3.898565577451186 -10.232517564085228 L4.190383584397726 -10.116480880998592 L4.478780401458924 -9.992184714891305 L4.540421849843107 -9.96545053562393 L4.562919528292253 -9.962171440566017 L4.5874436844929996 -9.964255058247218 L4.613783411279545 -9.971767101432006 L4.641713150729764 -9.98479017534882 L4.671025822512182 -10.003399231557461 L4.701484388201701 -10.02764915890039 L4.732861048168546 -10.057591019385752 L4.764950307207922 -10.09327746014837 L4.797516712021409 -10.134741065605736 L4.830319397349583 -10.182027485804994 L4.875163121895506 -10.254568382331364 L4.960933952390231 -10.378174242371431 L5.025875148336279 -10.460769513235427 L5.107621812934553 -10.556211508326987 L5.206404127507789 -10.662207627253835 L5.323515682714761 -10.777778266418826 L5.45915457272842 -10.90089306656837 L5.616918103814501 -11.032475709265846 L5.792992658586365 -11.16726512784865 L5.99275613646304 -11.307374116163512 L6.187812283341918 -11.432876966297046 A13 13 0 0 1 6.807255749484242 -11.075241114372023 L6.796095166460689 -10.843566110943836 L6.774638962219819 -10.600511370196873 L6.745945178951708 -10.380631623513004 L6.710873033221645 -10.178213076452984 L6.672071933717126 -9.99918895188526 L6.630540601872124 -9.839982050416822 L6.588136427465535 -9.701435997088351 L6.546354567427511 -9.58292031132582 L6.507295562599857 -9.485381950452402 L6.4431351629958975 -9.349299302320244 L6.402734766063725 -9.27419304939998 L6.378184867581231 -9.222141880493805 L6.358559534329399 -9.173206743886714 L6.343698799578012 -9.127573409988685 L6.333456717744541 -9.08542949512881 L6.327684947470396 -9.046926639807387 L6.326225367944471 -9.012236593286698 L6.328911924822257 -8.98153719244332 L6.335576167983178 -8.954970298325037 L6.346033780239856 -8.93268994720821 L6.3601223990860065 -8.914845933674032 L6.414095601672971 -8.87482996308095 L6.665937647645491 -8.687219076189024 L6.912337366442673 -8.492515610434895 L6.964959118657238 -8.450738395426365 L6.985841515051125 -8.441748205169837 L7.010069310831981 -8.437413506610401 L7.037455793036359 -8.437852360195631 L7.0678044692483 -8.443202935135087 L7.100934714118652 -8.453591225409747 L7.136631772388581 -8.469131599628962 L7.174688822332663 -8.489932338787792 L7.214920996906565 -8.51609748218612 L7.257109299156278 -8.547719443752204 L7.301032886208684 -8.584904658561985 L7.36312356346442 -8.643367374013152 L7.477963374446183 -8.740562342060231 L7.562068981935574 -8.803535228994535 L7.665732402516314 -8.874567523294386 L7.788582605628434 -8.951385167721373 L7.931615563830297 -9.032707131962434 L8.094497125756366 -9.116520969033196 L8.280941088813996 -9.20278783543835 L8.485902117228013 -9.287412967825063 L8.715121694224353 -9.371045265543223 L8.936013991900301 -9.441787464083522 A13 13 0 0 1 9.441787464083518 -8.936013991900303 L9.371045265543218 -8.715121694224354 L9.28741296782506 -8.485902117228017 L9.202787835438349 -8.280941088814 L9.116520969033193 -8.094497125756368 L9.03270713196243 -7.931615563830299 L8.951385167721371 -7.788582605628436 L8.874567523294383 -7.6657324025163165 L8.803535228994532 -7.562068981935576 L8.740562342060228 -7.477963374446186 L8.64336737401315 -7.3631235634644225 L8.584904658561983 -7.301032886208687 L8.547719443752202 -7.257109299156281 L8.516097482186119 -7.214920996906567 L8.489932338787789 -7.174688822332665 L8.46913159962896 -7.136631772388584 L8.453591225409745 -7.1009347141186545 L8.443202935135083 -7.067804469248303 L8.43785236019563 -7.0374557930363615 L8.437413506610397 -7.010069310831982 L8.441748205169835 -6.985841515051128 L8.450738395426363 -6.96495911865724 L8.492515610434893 -6.912337366442675 L8.687219076189022 -6.665937647645493 L8.874829963080948 -6.414095601672973 L8.91484593367403 -6.360122399086008 L8.932689947208209 -6.346033780239859 L8.954970298325033 -6.335576167983181 L8.981537192443318 -6.328911924822259 L9.012236593286694 -6.326225367944474 L9.046926639807385 -6.327684947470399 L9.085429495128809 -6.333456717744544 L9.127573409988685 -6.343698799578013 L9.173206743886713 -6.358559534329402 L9.222141880493803 -6.378184867581234 L9.274193049399978 -6.402734766063728 L9.349299302320242 -6.4431351629959 L9.485381950452398 -6.50729556259986 L9.582920311325816 -6.546354567427514 L9.701435997088348 -6.588136427465538 L9.83998205041682 -6.630540601872127 L9.999188951885257 -6.672071933717129 L10.17821307645298 -6.710873033221649 L10.380631623513002 -6.745945178951712 L10.600511370196871 -6.774638962219822 L10.843566110943835 -6.796095166460692 L11.07524111437202 -6.807255749484246 A13 13 0 0 1 11.43287696629704 -6.187812283341932 L11.307374116163505 -5.992756136463054 L11.167265127848642 -5.792992658586377 L11.032475709265839 -5.616918103814514 L10.900893066568365 -5.459154572728433 L10.77777826641882 -5.323515682714773 L10.662207627253828 -5.206404127507803 L10.55621150832698 -5.107621812934566 L10.460769513235421 -5.025875148336293 L10.378174242371426 -4.960933952390245 L10.254568382331357 -4.875163121895518 L10.182027485804987 -4.830319397349595 L10.13474106560573 -4.79751671202142 L10.093277460148364 -4.764950307207934 L10.057591019385745 -4.732861048168559 L10.027649158900383 -4.701484388201713 L10.003399231557456 -4.671025822512195 L9.984790175348815 -4.641713150729776 L9.971767101432 -4.613783411279558 L9.964255058247213 -4.58744368449301 L9.962171440566012 -4.562919528292265 L9.965450535623924 -4.540421849843119 L9.9921847148913 -4.478780401458936 L10.116480880998587 -4.190383584397739 L10.232517564085223 -3.8985655774511976 L10.257200730790421 -3.8360745718471647 L10.270790321431162 -3.8178476405032127 L10.289604858775364 -3.801979783542565 L10.313541674877264 -3.7886666007937273 L10.34249968691776 -3.7781259965101768 L10.376385465746413 -3.770557397354744 L10.415070212158154 -3.7661672270779367 L10.458428953782237 -3.7651526706349365 L10.50635361071189 -3.767696262224602 L10.55870073298572 -3.7739875331334667 L10.615332282603333 -3.784229080277716 L10.698335744170564 -3.8038139384047795 L10.846387421870112 -3.8305673443626853 L10.950711458023799 -3.8430506604527426 L11.076002760839836 -3.8527347215151355 L11.220802979808504 -3.857835651491728 L11.385334137310284 -3.856746059309205 L11.56830062628173 -3.847890190438099 L11.772899267874465 -3.829377506721027 L11.992713291460143 -3.800184506959533 L12.233039417042775 -3.7580024128621528 L12.45970885760061 -3.708820805079641 A13 13 0 0 1 12.644834796979934 -3.0179213935170903 Z" id="SvgjsPath1088">
        </path>
      </g>
    </g>
  </g>
</svg>
