<?xml version="1.0" encoding="UTF-8"?>
<svg viewBox="-22.05 -22.05 56.1 44.1" height="44.1mm" width="56.1mm" xmlns:svgjs="http://svgjs.com/svgjs" xmlns:xlink="http://www.w3.org/1999/xlink" version="1.1" xmlns="http://www.w3.org/2000/svg" id="SvgjsSvg1270">
  <defs id="SvgjsDefs1271">
  </defs>
  <defs id="SvgjsDefs1271">
  </defs>
  <g id="SvgjsG1272">
    <g transform="matrix(1,0,0,1,24,0)" id="SvgjsG1273">
      <g fill="none" stroke-width="0.04" stroke="blue" id="SvgjsG1274">
      </g>
      <g fill="none" stroke-width="0.1" stroke="black" id="SvgjsG1275">
        <circle cy="0" cx="0" r="2.05" id="SvgjsCircle1276">
        </circle>
        <path d="M-3.2859817807163805 6.590249342794246  L-3.3272131771273683 6.401925593760835 L-3.3587572106361003 6.2223416845428865 L-3.3817452520924745 6.049333868389974 L-3.3964177178020956 5.887116501717967 L-3.4039342628861085 5.731616649467234 L-3.4048181463625924 5.5882648917172855 L-3.400016891318335 5.453426699612822 L-3.3904992340435642 5.330842668026323 L-3.3600724292491075 5.113541683099884 L-3.320665368333581 4.93938835396145 L-3.277871265936171 4.804090542449217 L-3.240083479549562 4.712152518759341 L-3.139950088265735 4.621451931936543 L-3.0337355786637037 4.51424747284085 L-2.9418541235163236 4.406668247151129 L-2.864128946128299 4.299725417564476 L-2.8003267012618367 4.1943877203711155 L-2.7501645462044624 4.0916451050647105 L-2.7132889275655843 3.9924450947320493 L-2.6893109366155485 3.897699857120864 L-2.677778025014396 3.8083144889110723 L-2.67817400481186 3.7251445893079103 L-2.6899473327186163 3.649024544313179 L-2.7125040390384676 3.580746313521806 L-2.7451794433970975 3.521073572257473 L-2.7931707806362285 3.4651202126621814 L-2.9166881931738953 3.3608926731152846 L-3.055203340540528 3.23548728547185 L-3.1466251762801365 3.146625176280137 L-3.2354872854718497 3.0552033405405283 L-3.360892673115284 2.9166881931738957 L-3.465120212662181 2.793170780636229 L-3.5210735722574724 2.745179443397098 L-3.5807463135218054 2.712504039038468 L-3.6490245443131784 2.6899473327186167 L-3.72514458930791 2.6781740048118605 L-3.808314488911072 2.6777780250143963 L-3.8976998571208634 2.689310936615549 L-3.9924450947320484 2.713288927565585 L-4.09164510506471 2.7501645462044633 L-4.1943877203711155 2.800326701261837 L-4.299725417564475 2.8641289461282993 L-4.406668247151128 2.9418541235163245 L-4.514247472840849 3.0337355786637046 L-4.621451931936542 3.1399500882657354 L-4.71215251875934 3.240083479549563 L-4.804090542449216 3.2778712659361724 L-4.93938835396145 3.320665368333582 L-5.113541683099884 3.3600724292491075 L-5.330842668026322 3.390499234043565 L-5.453426699612821 3.4000168913183364 L-5.5882648917172855 3.4048181463625924 L-5.731616649467233 3.40393426288611 L-5.8871165017179665 3.3964177178020964 L-6.049333868389973 3.381745252092476 L-6.222341684542886 3.358757210636101 L-6.401925593760834 3.3272131771273696 L-6.590249342794246 3.285981780716382 L-6.763730659222743 3.240507752709699 A7.5 7.5 0 0 1 -7.074064821684367 2.4912948088271523 L-6.98355 2.3364700000000003 L-6.87954 2.1741500000000005 L-6.77486 2.0248600000000003 L-6.66878 1.8862700000000003 L-6.56445 1.7611900000000005 L-6.45981 1.6459200000000005 L-6.35907 1.5439300000000005 L-6.26033 1.4519800000000005 L-6.16692 1.3720300000000005 L-5.99175 1.2398900000000004 L-5.84074 1.1446100000000003 L-5.71481 1.0792000000000004 L-5.62308 1.0409100000000004 L-5.48814 1.0475800000000004 L-5.33723 1.0468800000000003 L-5.19619 1.0357800000000001 L-5.06561 1.0151200000000002 L-4.94601 0.9857500000000003 L-4.83789 0.9485700000000004 L-4.74167 0.9045000000000003 L-4.65772 0.8544600000000003 L-4.58636 0.7994100000000003 L-4.52783 0.7403200000000002 L-4.48233 0.6781700000000003 L-4.45 0.6139400000000003 L-4.43091 0.5486400000000002 L-4.42528 0.4751400000000003 L-4.43892 0.31410000000000027 L-4.44819 0.1274800000000003 L-4.45 2.724839128102861e-16 L-4.44819 -0.12747999999999973 L-4.43892 -0.3140999999999997 L-4.42528 -0.47513999999999973 L-4.43091 -0.5486399999999998 L-4.45 -0.6139399999999998 L-4.48233 -0.6781699999999998 L-4.52783 -0.7403199999999998 L-4.58636 -0.7994099999999996 L-4.65772 -0.8544599999999997 L-4.74167 -0.9044999999999996 L-4.83789 -0.9485699999999997 L-4.94601 -0.9857499999999997 L-5.06561 -1.0151199999999998 L-5.19619 -1.0357799999999997 L-5.33723 -1.0468799999999998 L-5.48814 -1.0475799999999995 L-5.62308 -1.0409099999999996 L-5.71481 -1.0791999999999995 L-5.84074 -1.1446099999999995 L-5.99175 -1.2398899999999995 L-6.16692 -1.3720299999999996 L-6.26033 -1.4519799999999996 L-6.35907 -1.5439299999999996 L-6.45981 -1.6459199999999996 L-6.56445 -1.7611899999999996 L-6.66878 -1.8862699999999994 L-6.77486 -2.0248599999999994 L-6.87954 -2.1741499999999996 L-6.98355 -2.3364699999999994 L-7.074064821684367 -2.4912948088271514 A7.5 7.5 0 0 1 -6.763730659222744 -3.2405077527096977 L-6.590249342794246 -3.2859817807163805 L-6.401925593760835 -3.3272131771273683 L-6.2223416845428865 -3.3587572106361003 L-6.049333868389974 -3.3817452520924745 L-5.887116501717967 -3.3964177178020956 L-5.731616649467234 -3.4039342628861085 L-5.5882648917172855 -3.4048181463625924 L-5.453426699612822 -3.400016891318335 L-5.330842668026323 -3.3904992340435642 L-5.113541683099884 -3.3600724292491075 L-4.93938835396145 -3.320665368333581 L-4.804090542449217 -3.277871265936171 L-4.712152518759341 -3.240083479549562 L-4.621451931936543 -3.139950088265735 L-4.51424747284085 -3.0337355786637037 L-4.406668247151129 -2.9418541235163236 L-4.299725417564476 -2.864128946128299 L-4.1943877203711155 -2.8003267012618367 L-4.0916451050647105 -2.7501645462044624 L-3.9924450947320493 -2.7132889275655843 L-3.897699857120864 -2.6893109366155485 L-3.8083144889110723 -2.677778025014396 L-3.7251445893079103 -2.67817400481186 L-3.649024544313179 -2.6899473327186163 L-3.580746313521806 -2.7125040390384676 L-3.521073572257473 -2.7451794433970975 L-3.4651202126621814 -2.7931707806362285 L-3.3608926731152846 -2.9166881931738953 L-3.23548728547185 -3.055203340540528 L-3.146625176280137 -3.1466251762801365 L-3.0552033405405283 -3.2354872854718497 L-2.9166881931738957 -3.360892673115284 L-2.793170780636229 -3.465120212662181 L-2.745179443397098 -3.5210735722574724 L-2.712504039038468 -3.5807463135218054 L-2.6899473327186167 -3.6490245443131784 L-2.6781740048118605 -3.72514458930791 L-2.6777780250143963 -3.808314488911072 L-2.689310936615549 -3.8976998571208634 L-2.713288927565585 -3.9924450947320484 L-2.7501645462044633 -4.09164510506471 L-2.800326701261837 -4.1943877203711155 L-2.8641289461282993 -4.299725417564475 L-2.9418541235163245 -4.406668247151128 L-3.0337355786637046 -4.514247472840849 L-3.1399500882657354 -4.621451931936542 L-3.240083479549563 -4.71215251875934 L-3.2778712659361724 -4.804090542449216 L-3.320665368333582 -4.93938835396145 L-3.3600724292491075 -5.113541683099884 L-3.390499234043565 -5.330842668026322 L-3.4000168913183364 -5.453426699612821 L-3.4048181463625924 -5.5882648917172855 L-3.40393426288611 -5.731616649467233 L-3.3964177178020964 -5.8871165017179665 L-3.381745252092476 -6.049333868389973 L-3.358757210636101 -6.222341684542886 L-3.3272131771273696 -6.401925593760834 L-3.285981780716382 -6.590249342794246 L-3.240507752709699 -6.763730659222743 A7.5 7.5 0 0 1 -2.4912948088271527 -7.074064821684367 L-2.3364700000000007 -6.98355 L-2.174150000000001 -6.87954 L-2.0248600000000008 -6.77486 L-1.8862700000000008 -6.66878 L-1.761190000000001 -6.56445 L-1.645920000000001 -6.45981 L-1.543930000000001 -6.35907 L-1.4519800000000007 -6.26033 L-1.3720300000000007 -6.16692 L-1.2398900000000006 -5.99175 L-1.1446100000000006 -5.84074 L-1.0792000000000006 -5.71481 L-1.0409100000000007 -5.62308 L-1.0475800000000006 -5.48814 L-1.0468800000000007 -5.33723 L-1.0357800000000006 -5.19619 L-1.0151200000000007 -5.06561 L-0.9857500000000006 -4.94601 L-0.9485700000000006 -4.83789 L-0.9045000000000005 -4.74167 L-0.8544600000000006 -4.65772 L-0.7994100000000005 -4.58636 L-0.7403200000000005 -4.52783 L-0.6781700000000006 -4.48233 L-0.6139400000000006 -4.45 L-0.5486400000000006 -4.43091 L-0.47514000000000056 -4.42528 L-0.31410000000000055 -4.43892 L-0.12748000000000057 -4.44819 L-5.449678256205722e-16 -4.45 L0.12747999999999945 -4.44819 L0.31409999999999944 -4.43892 L0.47513999999999945 -4.42528 L0.5486399999999995 -4.43091 L0.6139399999999995 -4.45 L0.6781699999999995 -4.48233 L0.7403199999999994 -4.52783 L0.7994099999999994 -4.58636 L0.8544599999999994 -4.65772 L0.9044999999999994 -4.74167 L0.9485699999999995 -4.83789 L0.9857499999999995 -4.94601 L1.0151199999999994 -5.06561 L1.0357799999999993 -5.19619 L1.0468799999999994 -5.33723 L1.0475799999999993 -5.48814 L1.0409099999999993 -5.62308 L1.0791999999999993 -5.71481 L1.1446099999999992 -5.84074 L1.2398899999999993 -5.99175 L1.3720299999999994 -6.16692 L1.4519799999999994 -6.26033 L1.5439299999999991 -6.35907 L1.6459199999999992 -6.45981 L1.7611899999999991 -6.56445 L1.886269999999999 -6.66878 L2.024859999999999 -6.77486 L2.174149999999999 -6.87954 L2.336469999999999 -6.98355 L2.491294808827151 -7.074064821684367 A7.5 7.5 0 0 1 3.2405077527096973 -6.763730659222745 L3.28598178071638 -6.590249342794247 L3.3272131771273683 -6.401925593760835 L3.3587572106361003 -6.222341684542887 L3.3817452520924745 -6.049333868389974 L3.396417717802095 -5.887116501717968 L3.403934262886108 -5.7316166494672345 L3.404818146362592 -5.5882648917172855 L3.4000168913183346 -5.453426699612823 L3.3904992340435642 -5.330842668026324 L3.360072429249107 -5.113541683099885 L3.3206653683335805 -4.9393883539614505 L3.277871265936171 -4.804090542449217 L3.2400834795495617 -4.712152518759342 L3.139950088265735 -4.621451931936543 L3.0337355786637037 -4.51424747284085 L2.9418541235163236 -4.40666824715113 L2.864128946128299 -4.299725417564476 L2.8003267012618362 -4.194387720371116 L2.750164546204462 -4.0916451050647105 L2.713288927565584 -3.99244509473205 L2.6893109366155485 -3.8976998571208648 L2.677778025014396 -3.8083144889110727 L2.67817400481186 -3.725144589307911 L2.6899473327186163 -3.6490245443131792 L2.7125040390384676 -3.5807463135218063 L2.7451794433970975 -3.5210735722574733 L2.7931707806362285 -3.465120212662182 L2.9166881931738953 -3.360892673115285 L3.055203340540528 -3.2354872854718506 L3.1466251762801365 -3.1466251762801374 L3.2354872854718497 -3.055203340540529 L3.360892673115284 -2.916688193173896 L3.465120212662181 -2.7931707806362294 L3.5210735722574724 -2.7451794433970984 L3.5807463135218054 -2.7125040390384685 L3.6490245443131784 -2.689947332718617 L3.72514458930791 -2.6781740048118614 L3.808314488911072 -2.6777780250143968 L3.8976998571208634 -2.68931093661555 L3.992445094732049 -2.7132889275655856 L4.09164510506471 -2.7501645462044637 L4.1943877203711155 -2.8003267012618376 L4.299725417564476 -2.8641289461283 L4.406668247151128 -2.941854123516325 L4.514247472840849 -3.033735578663705 L4.621451931936542 -3.1399500882657363 L4.71215251875934 -3.2400834795495634 L4.804090542449216 -3.2778712659361724 L4.93938835396145 -3.3206653683335827 L5.113541683099885 -3.3600724292491084 L5.330842668026322 -3.390499234043566 L5.453426699612822 -3.4000168913183373 L5.5882648917172855 -3.4048181463625933 L5.731616649467234 -3.4039342628861107 L5.887116501717967 -3.3964177178020973 L6.049333868389973 -3.3817452520924767 L6.222341684542886 -3.358757210636102 L6.401925593760834 -3.3272131771273705 L6.590249342794246 -3.2859817807163827 L6.763730659222744 -3.2405077527097 A7.5 7.5 0 0 1 7.074064821684366 -2.491294808827153 L6.98355 -2.336470000000001 L6.87954 -2.1741500000000014 L6.77486 -2.024860000000001 L6.66878 -1.8862700000000012 L6.56445 -1.7611900000000011 L6.45981 -1.6459200000000012 L6.35907 -1.5439300000000011 L6.26033 -1.4519800000000012 L6.16692 -1.3720300000000012 L5.99175 -1.239890000000001 L5.84074 -1.144610000000001 L5.71481 -1.079200000000001 L5.62308 -1.0409100000000011 L5.48814 -1.047580000000001 L5.33723 -1.046880000000001 L5.19619 -1.0357800000000008 L5.06561 -1.015120000000001 L4.94601 -0.9857500000000009 L4.83789 -0.9485700000000009 L4.74167 -0.9045000000000009 L4.65772 -0.8544600000000009 L4.58636 -0.7994100000000008 L4.52783 -0.7403200000000008 L4.48233 -0.6781700000000008 L4.45 -0.6139400000000008 L4.43091 -0.5486400000000008 L4.42528 -0.47514000000000084 L4.43892 -0.3141000000000008 L4.44819 -0.12748000000000081 L4.45 -8.174517384308582e-16 L4.44819 0.1274799999999992 L4.43892 0.31409999999999916 L4.42528 0.4751399999999992 L4.43091 0.5486399999999992 L4.45 0.6139399999999993 L4.48233 0.6781699999999993 L4.52783 0.7403199999999992 L4.58636 0.7994099999999991 L4.65772 0.8544599999999991 L4.74167 0.9044999999999991 L4.83789 0.9485699999999991 L4.94601 0.9857499999999991 L5.06561 1.0151199999999991 L5.19619 1.035779999999999 L5.33723 1.0468799999999991 L5.48814 1.0475799999999988 L5.62308 1.040909999999999 L5.71481 1.0791999999999988 L5.84074 1.1446099999999988 L5.99175 1.2398899999999988 L6.16692 1.372029999999999 L6.26033 1.451979999999999 L6.35907 1.543929999999999 L6.45981 1.645919999999999 L6.56445 1.761189999999999 L6.66878 1.8862699999999986 L6.77486 2.0248599999999985 L6.87954 2.1741499999999987 L6.98355 2.3364699999999985 L7.074064821684368 2.4912948088271505 A7.5 7.5 0 0 1 6.763730659222745 3.2405077527096964 L6.590249342794247 3.28598178071638 L6.401925593760835 3.3272131771273674 L6.2223416845428865 3.3587572106360994 L6.049333868389974 3.3817452520924736 L5.887116501717968 3.396417717802095 L5.7316166494672345 3.403934262886108 L5.5882648917172855 3.404818146362591 L5.453426699612823 3.4000168913183337 L5.330842668026324 3.3904992340435642 L5.113541683099885 3.360072429249106 L4.9393883539614505 3.3206653683335805 L4.804090542449217 3.27787126593617 L4.712152518759341 3.240083479549561 L4.621451931936543 3.139950088265734 L4.51424747284085 3.033735578663703 L4.406668247151129 2.9418541235163227 L4.299725417564476 2.864128946128298 L4.1943877203711155 2.8003267012618362 L4.0916451050647105 2.750164546204462 L3.99244509473205 2.713288927565584 L3.8976998571208643 2.689310936615548 L3.8083144889110727 2.6777780250143954 L3.725144589307911 2.6781740048118596 L3.6490245443131792 2.689947332718616 L3.5807463135218063 2.7125040390384667 L3.5210735722574733 2.745179443397097 L3.465120212662182 2.793170780636228 L3.360892673115285 2.916688193173895 L3.2354872854718506 3.0552033405405274 L3.1466251762801374 3.146625176280136 L3.055203340540529 3.2354872854718493 L2.916688193173896 3.3608926731152837 L2.7931707806362294 3.4651202126621805 L2.7451794433970984 3.521073572257472 L2.7125040390384685 3.5807463135218054 L2.689947332718617 3.649024544313178 L2.6781740048118614 3.7251445893079094 L2.6777780250143968 3.8083144889110714 L2.6893109366155503 3.897699857120863 L2.7132889275655856 3.992445094732048 L2.7501645462044637 4.091645105064709 L2.8003267012618376 4.194387720371115 L2.8641289461283 4.299725417564474 L2.941854123516325 4.406668247151128 L3.033735578663705 4.514247472840849 L3.1399500882657363 4.621451931936542 L3.2400834795495634 4.71215251875934 L3.2778712659361724 4.804090542449215 L3.320665368333583 4.93938835396145 L3.360072429249109 5.113541683099884 L3.390499234043566 5.330842668026322 L3.4000168913183373 5.453426699612821 L3.4048181463625937 5.588264891717285 L3.4039342628861107 5.731616649467234 L3.3964177178020973 5.887116501717967 L3.381745252092477 6.049333868389972 L3.3587572106361026 6.222341684542885 L3.327213177127371 6.401925593760833 L3.2859817807163827 6.590249342794246 L3.2405077527097 6.763730659222743 A7.5 7.5 0 0 1 2.4912948088271536 7.074064821684366 L2.3364700000000016 6.983549999999999 L2.174150000000002 6.8795399999999995 L2.0248600000000017 6.774859999999999 L1.8862700000000014 6.668779999999999 L1.7611900000000016 6.56445 L1.6459200000000016 6.45981 L1.5439300000000016 6.35907 L1.4519800000000016 6.26033 L1.3720300000000016 6.16692 L1.2398900000000015 5.99175 L1.1446100000000012 5.84074 L1.0792000000000013 5.71481 L1.0409100000000013 5.62308 L1.0475800000000013 5.48814 L1.0468800000000014 5.33723 L1.0357800000000013 5.19619 L1.0151200000000014 5.06561 L0.9857500000000012 4.94601 L0.9485700000000012 4.83789 L0.9045000000000011 4.74167 L0.8544600000000011 4.65772 L0.7994100000000011 4.58636 L0.7403200000000011 4.52783 L0.6781700000000012 4.48233 L0.6139400000000012 4.45 L0.5486400000000011 4.43091 L0.4751400000000011 4.42528 L0.3141000000000011 4.43892 L0.1274800000000011 4.44819 L1.0899356512411444e-15 4.45 L-0.12747999999999893 4.44819 L-0.3140999999999989 4.43892 L-0.4751399999999989 4.42528 L-0.5486399999999989 4.43091 L-0.6139399999999989 4.45 L-0.6781699999999989 4.48233 L-0.7403199999999989 4.52783 L-0.7994099999999988 4.58636 L-0.8544599999999989 4.65772 L-0.9044999999999989 4.74167 L-0.9485699999999988 4.83789 L-0.9857499999999988 4.94601 L-1.0151199999999987 5.06561 L-1.0357799999999986 5.19619 L-1.0468799999999987 5.33723 L-1.0475799999999986 5.48814 L-1.0409099999999987 5.62308 L-1.0791999999999986 5.71481 L-1.1446099999999986 5.84074 L-1.2398899999999984 5.99175 L-1.3720299999999985 6.16692 L-1.4519799999999985 6.26033 L-1.5439299999999985 6.35907 L-1.6459199999999985 6.45981 L-1.7611899999999985 6.56445 L-1.8862699999999983 6.668780000000001 L-2.024859999999998 6.774860000000001 L-2.1741499999999983 6.879540000000001 L-2.336469999999998 6.983550000000001 L-2.49129480882715 7.074064821684368 A7.5 7.5 0 0 1 -3.2405077527096977 6.763730659222744 Z" id="SvgjsPath1277">
        </path>
      </g>
    </g>
    <g transform="matrix(1,0,0,1,0,0)" id="SvgjsG1278">
      <g fill="none" stroke-width="0.04" stroke="blue" id="SvgjsG1279">
      </g>
      <g fill="none" stroke-width="0.1" stroke="black" id="SvgjsG1280">
        <circle cy="0" cx="0" r="2.05" id="SvgjsCircle1281">
        </circle>
        <path d="M18.710717207865628 -4.2938935252031065  L18.43019229594833 -4.058806474318133 L18.16397865912052 -3.8540670478099237 L17.91377547246239 -3.6778009980836157 L17.68178074394546 -3.528482166249333 L17.4691676829366 -3.4038644713242365 L17.277451005778122 -3.302019122391104 L17.10804681197295 -3.2209236550626565 L16.962840040601094 -3.158748450617783 L16.749034031980116 -3.0820348711317047 L16.611605384552245 -3.039230636923554 L16.534444727077325 -3.009585532133087 L16.46582296438411 -2.9782101742088245 L16.40575520425892 -2.945449485975168 L16.35428760309585 -2.91164239159367 L16.311425354232618 -2.8771325086268096 L16.27717234574502 -2.842273369085677 L16.251523856522137 -2.8074072852708296 L16.23445533655586 -2.7728739589589786 L16.22593962531421 -2.7390329208240622 L16.225944868864296 -2.7062027384836425 L16.240830301555214 -2.6152778018952443 L16.30926796959918 -2.1471558620198485 L16.364321132014602 -1.6772718185494824 L16.373476013406773 -1.5855924405700523 L16.38196802497022 -1.5538795624350366 L16.398952275563104 -1.5233956579640202 L16.42437708235531 -1.4944566842507199 L16.458175627020406 -1.467416950921387 L16.500283701755812 -1.442610938705043 L16.55061726986172 -1.4203705178068669 L16.609081074927783 -1.4010361676187286 L16.675581165805575 -1.3849384530838837 L16.749985238814144 -1.3723928036492867 L16.832189428356447 -1.3637284789962698 L16.9760138592031 -1.3579519149971035 L17.202389540134867 -1.339189354332884 L17.358740637798473 -1.3167149965136618 L17.543361575092657 -1.2822278219031498 L17.754905180849363 -1.233472696393601 L17.99252706028758 -1.1681295558794746 L18.25526331759618 -1.083943293962998 L18.542562048083244 -0.978440714086869 L18.852695138069258 -0.8495787736400187 L19.18450640143366 -0.6951073095939944 L19.49260244307153 -0.5364420820306666 A19.5 19.5 0 0 1 19.49260244307153 0.5364420820306648 L19.18450640143366 0.6951073095939921 L18.852695138069258 0.8495787736400169 L18.542562048083244 0.9784407140868667 L18.255263317596178 1.0839432939629958 L17.99252706028758 1.1681295558794729 L17.75490518084936 1.2334726963935991 L17.543361575092657 1.282227821903148 L17.358740637798473 1.3167149965136595 L17.202389540134867 1.3391893543328819 L16.9760138592031 1.3579519149971018 L16.832189428356447 1.363728478996268 L16.74998523881414 1.372392803649285 L16.675581165805575 1.384938453083882 L16.609081074927783 1.4010361676187268 L16.55061726986172 1.420370517806865 L16.500283701755812 1.4426109387050412 L16.458175627020406 1.4674169509213852 L16.42437708235531 1.494456684250718 L16.398952275563104 1.5233956579640184 L16.381968024970217 1.5538795624350348 L16.373476013406773 1.58559244057005 L16.364321132014602 1.6772718185494806 L16.30926796959918 2.1471558620198468 L16.240830301555214 2.6152778018952425 L16.225944868864296 2.7062027384836407 L16.225939625314215 2.7390329208240605 L16.23445533655586 2.772873958958977 L16.251523856522137 2.807407285270828 L16.27717234574502 2.8422733690856754 L16.311425354232618 2.877132508626808 L16.35428760309585 2.9116423915936682 L16.40575520425892 2.9454494859751663 L16.46582296438411 2.9782101742088227 L16.53444472707733 3.009585532133085 L16.611605384552245 3.0392306369235524 L16.749034031980116 3.082034871131703 L16.962840040601094 3.158748450617781 L17.10804681197295 3.2209236550626548 L17.277451005778122 3.302019122391102 L17.469167682936604 3.4038644713242348 L17.68178074394546 3.528482166249331 L17.913775472462394 3.6778009980836135 L18.16397865912052 3.854067047809921 L18.43019229594833 4.058806474318131 L18.710717207865628 4.293893525203104 L18.967249548772163 4.526893489537135 A19.5 19.5 0 0 1 18.689566693924192 5.563220012220537 L18.350903187639826 5.636737729961407 L17.990417962082567 5.700066632169911 L17.657500476501735 5.744269358268373 L17.352685135884823 5.771818641827023 L17.077112391527944 5.785135179200462 L16.830675232055352 5.786750738262225 L16.613721044840407 5.779093059116369 L16.42646497583328 5.76462169705199 L16.2696246208013 5.745863617900813 L16.04610639611074 5.705396522240505 L15.905687579126392 5.673751752740367 L15.824041937185168 5.660844837849304 L15.74892606847824 5.653705813517934 L15.68052551814457 5.652043521711149 L15.61904972087476 5.655587523692131 L15.56467498301244 5.664042834591444 L15.517581437735565 5.6771052307443295 L15.477936152592438 5.694475900447025 L15.445887717540714 5.715848378327129 L15.421592376206696 5.74089772142158 L15.405181826084062 5.769332115114299 L15.372610520646521 5.855518136382798 L15.197818309810666 6.295142462405727 L15.01055372528591 6.729600562091727 L14.97264239615045 6.813574673121156 L14.964140254826116 6.845284836994922 L14.963607095068287 6.880176797969803 L14.971156136779996 6.917951087761073 L14.986906668406249 6.958267456068381 L15.01097032472339 7.000804130182025 L15.043440262917134 7.0452316837236575 L15.084404228212176 7.091207624685281 L15.133946138998894 7.138398699854223 L15.19210913165205 7.186465587475842 L15.258967885766685 7.235071207503141 L15.380635214565142 7.311986074096334 L15.567301024718944 7.4414227687374765 L15.691467868295593 7.539061682374467 L15.834110702757597 7.661238920339012 L15.992935276596288 7.809233900473333 L16.16605029042773 7.984633659840733 L16.351493432793983 8.188909229964352 L16.547550141932735 8.42392650954541 L16.751702306191362 8.690590768546345 L16.96182355750373 8.990272612252177 L17.149309942585887 9.281728750838193 A19.5 19.5 0 0 1 16.612867860555223 10.210873692233337 L16.266716247909734 10.194233789181482 L15.902123532551345 10.162104369522915 L15.569109427845868 10.118635538537838 L15.267550138830986 10.066354087631831 L14.997920734548254 10.007893400446848 L14.759462580202689 9.945671280376029 L14.55188288085445 9.882122654753644 L14.374752871781935 9.819678955424004 L14.22811167038606 9.76096677139739 L14.022683299568039 9.66402778510677 L13.895239406770417 9.597118220853305 L13.819716328002762 9.563519651338304 L13.749007685915013 9.537182465951354 L13.683368060593448 9.517873450242503 L13.623069745110268 9.505385586138065 L13.568359386018349 9.49947957157379 L13.519489717484861 9.499908170952027 L13.476699452529276 9.506425994594238 L13.440211437104269 9.518775477593303 L13.41026069239108 9.5366831879753 L13.387049955580398 9.559901340285622 L13.333281906736428 9.634720569922877 L13.050662447790819 10.014125507193455 L12.757332718751275 10.385312165172415 L12.69897908760042 10.456612753749999 L12.682559455382634 10.485041903892636 L12.673013758581737 10.518606958228736 L12.67052886732161 10.557047956075113 L12.675308068649889 10.600067115000689 L12.687542474385632 10.647382519641177 L12.70740732928109 10.698700079403721 L12.735076032169403 10.753711682547772 L12.770715894269417 10.812117150866175 L12.81445640505208 10.873599889228025 L12.86645694220284 10.937853631811882 L12.964071524979035 11.043637509739616 L13.110876170183516 11.216976422700283 L13.205541320770626 11.343425114920963 L13.311701922449302 11.498357946661756 L13.426810760731117 11.682416944674376 L13.548630225278613 11.896645564744999 L13.67488413780121 12.14195683063537 L13.803433428691813 12.419709300852148 L13.931611487764437 12.73012566377842 L14.05700966243672 13.07397947790422 L14.162673204387055 13.404029536551628 A19.5 19.5 0 0 1 13.40402953655163 14.162673204387053 L13.07397947790422 14.057009662436718 L12.730125663778422 13.931611487764433 L12.419709300852151 13.803433428691811 L12.141956830635372 13.674884137801206 L11.896645564745002 13.54863022527861 L11.68241694467438 13.426810760731115 L11.498357946661757 13.3117019224493 L11.343425114920965 13.205541320770624 L11.216976422700284 13.110876170183515 L11.043637509739618 12.964071524979033 L10.937853631811883 12.866456942202836 L10.873599889228027 12.814456405052079 L10.812117150866177 12.770715894269415 L10.753711682547774 12.7350760321694 L10.698700079403725 12.707407329281088 L10.647382519641178 12.68754247438563 L10.60006711500069 12.675308068649887 L10.557047956075117 12.670528867321607 L10.518606958228737 12.673013758581735 L10.485041903892638 12.682559455382632 L10.45661275375 12.698979087600419 L10.385312165172417 12.757332718751274 L10.014125507193457 13.050662447790817 L9.634720569922878 13.333281906736426 L9.559901340285624 13.387049955580396 L9.536683187975301 13.410260692391079 L9.518775477593305 13.440211437104267 L9.506425994594238 13.476699452529274 L9.499908170952029 13.51948971748486 L9.499479571573792 13.568359386018347 L9.505385586138068 13.623069745110266 L9.517873450242504 13.683368060593446 L9.537182465951355 13.74900768591501 L9.563519651338305 13.81971632800276 L9.597118220853307 13.895239406770413 L9.664027785106772 14.022683299568037 L9.760966771397392 14.228111670386058 L9.819678955424006 14.374752871781933 L9.882122654753646 14.551882880854448 L9.945671280376033 14.759462580202687 L10.007893400446852 14.99792073454825 L10.066354087631833 15.267550138830982 L10.118635538537841 15.569109427845866 L10.162104369522917 15.902123532551341 L10.194233789181485 16.266716247909734 L10.210873692233339 16.61286786055522 A19.5 19.5 0 0 1 9.281728750838194 17.149309942585887 L8.990272612252179 16.961823557503727 L8.690590768546347 16.751702306191362 L8.423926509545412 16.547550141932735 L8.188909229964354 16.35149343279398 L7.984633659840735 16.166050290427727 L7.809233900473335 15.992935276596288 L7.661238920339015 15.834110702757597 L7.539061682374469 15.691467868295593 L7.441422768737478 15.56730102471894 L7.3119860740963345 15.38063521456514 L7.235071207503143 15.258967885766683 L7.186465587475844 15.192109131652046 L7.138398699854225 15.133946138998892 L7.091207624685283 15.084404228212174 L7.045231683723659 15.043440262917132 L7.0008041301820265 15.010970324723388 L6.958267456068382 14.986906668406247 L6.9179510877610735 14.971156136779994 L6.8801767979698045 14.963607095068285 L6.8452848369949235 14.964140254826114 L6.813574673121158 14.972642396150448 L6.729600562091729 15.010553725285908 L6.295142462405729 15.197818309810664 L5.8555181363828 15.37261052064652 L5.769332115114301 15.40518182608406 L5.7408977214215815 15.421592376206695 L5.715848378327131 15.445887717540712 L5.694475900447028 15.477936152592436 L5.677105230744331 15.517581437735563 L5.664042834591446 15.564674983012438 L5.655587523692133 15.619049720874758 L5.652043521711151 15.680525518144568 L5.653705813517936 15.748926068478239 L5.6608448378493055 15.824041937185168 L5.673751752740369 15.90568757912639 L5.705396522240508 16.046106396110737 L5.745863617900815 16.269624620801295 L5.764621697051992 16.42646497583328 L5.779093059116372 16.613721044840407 L5.786750738262227 16.830675232055352 L5.785135179200464 17.07711239152794 L5.771818641827025 17.35268513588482 L5.744269358268376 17.657500476501735 L5.700066632169913 17.990417962082567 L5.63673772996141 18.350903187639823 L5.56322001222054 18.689566693924192 A19.5 19.5 0 0 1 4.526893489537138 18.967249548772163 L4.293893525203107 18.710717207865628 L4.058806474318135 18.43019229594833 L3.8540670478099246 18.16397865912052 L3.6778009980836166 17.91377547246239 L3.5284821662493338 17.68178074394546 L3.4038644713242374 17.4691676829366 L3.302019122391105 17.277451005778122 L3.2209236550626574 17.10804681197295 L3.158748450617784 16.962840040601094 L3.0820348711317065 16.749034031980116 L3.039230636923555 16.611605384552245 L3.0095855321330878 16.534444727077325 L2.9782101742088254 16.46582296438411 L2.945449485975169 16.40575520425892 L2.9116423915936713 16.35428760309585 L2.8771325086268105 16.311425354232618 L2.842273369085678 16.27717234574502 L2.8074072852708305 16.251523856522137 L2.7728739589589795 16.23445533655586 L2.739032920824063 16.22593962531421 L2.7062027384836433 16.225944868864296 L2.615277801895245 16.240830301555214 L2.14715586201985 16.30926796959918 L1.6772718185494833 16.364321132014602 L1.5855924405700532 16.373476013406773 L1.5538795624350374 16.38196802497022 L1.523395657964021 16.398952275563104 L1.4944566842507208 16.42437708235531 L1.467416950921388 16.458175627020406 L1.4426109387050439 16.500283701755812 L1.4203705178068682 16.55061726986172 L1.4010361676187295 16.609081074927783 L1.3849384530838846 16.675581165805575 L1.3723928036492876 16.749985238814144 L1.3637284789962707 16.832189428356447 L1.3579519149971049 16.9760138592031 L1.339189354332885 17.202389540134867 L1.3167149965136626 17.358740637798473 L1.2822278219031507 17.543361575092657 L1.2334726963936018 17.754905180849363 L1.168129555879476 17.99252706028758 L1.083943293962999 18.25526331759618 L0.9784407140868698 18.542562048083244 L0.84957877364002 18.852695138069258 L0.6951073095939952 19.18450640143366 L0.5364420820306679 19.49260244307153 A19.5 19.5 0 0 1 -0.5364420820306635 19.49260244307153 L-0.6951073095939913 19.18450640143366 L-0.8495787736400155 18.852695138069258 L-0.9784407140868658 18.542562048083244 L-1.083943293962995 18.255263317596178 L-1.168129555879472 17.99252706028758 L-1.2334726963935978 17.75490518084936 L-1.2822278219031467 17.543361575092657 L-1.3167149965136586 17.358740637798473 L-1.339189354332881 17.202389540134867 L-1.3579519149971009 16.9760138592031 L-1.3637284789962671 16.832189428356443 L-1.3723928036492836 16.74998523881414 L-1.384938453083881 16.675581165805575 L-1.401036167618726 16.609081074927783 L-1.4203705178068642 16.55061726986172 L-1.4426109387050403 16.500283701755812 L-1.4674169509213844 16.458175627020406 L-1.4944566842507172 16.42437708235531 L-1.5233956579640175 16.398952275563104 L-1.553879562435034 16.381968024970217 L-1.5855924405700492 16.373476013406773 L-1.6772718185494797 16.364321132014602 L-2.147155862019846 16.30926796959918 L-2.6152778018952416 16.240830301555214 L-2.70620273848364 16.225944868864296 L-2.7390329208240596 16.225939625314215 L-2.772873958958976 16.23445533655586 L-2.807407285270827 16.251523856522137 L-2.8422733690856745 16.27717234574502 L-2.877132508626807 16.311425354232618 L-2.9116423915936673 16.35428760309585 L-2.9454494859751654 16.40575520425892 L-2.978210174208822 16.46582296438411 L-3.0095855321330838 16.53444472707733 L-3.0392306369235516 16.61160538455225 L-3.082034871131702 16.749034031980116 L-3.15874845061778 16.962840040601094 L-3.220923655062654 17.10804681197295 L-3.302019122391101 17.277451005778122 L-3.4038644713242334 17.469167682936604 L-3.52848216624933 17.68178074394546 L-3.6778009980836126 17.913775472462394 L-3.85406704780992 18.16397865912052 L-4.05880647431813 18.43019229594833 L-4.293893525203103 18.710717207865628 L-4.526893489537134 18.967249548772163 A19.5 19.5 0 0 1 -5.5632200122205315 18.689566693924196 L-5.636737729961402 18.350903187639826 L-5.700066632169906 17.99041796208257 L-5.744269358268369 17.65750047650174 L-5.771818641827018 17.352685135884826 L-5.785135179200457 17.077112391527944 L-5.78675073826222 16.830675232055356 L-5.779093059116365 16.613721044840407 L-5.764621697051984 16.426464975833284 L-5.745863617900808 16.2696246208013 L-5.705396522240501 16.04610639611074 L-5.673751752740363 15.905687579126393 L-5.660844837849298 15.82404193718517 L-5.653705813517929 15.748926068478243 L-5.652043521711144 15.680525518144572 L-5.655587523692126 15.619049720874761 L-5.66404283459144 15.564674983012441 L-5.677105230744325 15.517581437735567 L-5.694475900447021 15.47793615259244 L-5.715848378327125 15.445887717540716 L-5.740897721421575 15.421592376206698 L-5.7693321151142944 15.405181826084064 L-5.855518136382794 15.372610520646523 L-6.295142462405723 15.197818309810668 L-6.729600562091723 15.010553725285911 L-6.813574673121152 14.972642396150452 L-6.845284836994917 14.964140254826118 L-6.880176797969798 14.963607095068289 L-6.917951087761068 14.971156136779998 L-6.958267456068376 14.98690666840625 L-7.00080413018202 15.010970324723392 L-7.045231683723652 15.043440262917136 L-7.091207624685277 15.084404228212177 L-7.138398699854218 15.133946138998896 L-7.186465587475837 15.192109131652051 L-7.235071207503137 15.258967885766687 L-7.311986074096329 15.380635214565146 L-7.441422768737473 15.567301024718946 L-7.539061682374463 15.691467868295597 L-7.661238920339008 15.8341107027576 L-7.809233900473328 15.992935276596292 L-7.9846336598407275 16.16605029042773 L-8.188909229964347 16.351493432793987 L-8.423926509545405 16.54755014193274 L-8.690590768546341 16.751702306191365 L-8.990272612252172 16.96182355750373 L-9.281728750838187 17.14930994258589 A19.5 19.5 0 0 1 -10.210873692233335 16.612867860555223 L-10.19423378918148 16.266716247909734 L-10.162104369522913 15.902123532551347 L-10.118635538537836 15.56910942784587 L-10.06635408763183 15.267550138830988 L-10.007893400446846 14.997920734548256 L-9.945671280376025 14.759462580202692 L-9.882122654753642 14.55188288085445 L-9.819678955424003 14.374752871781936 L-9.760966771397388 14.228111670386062 L-9.664027785106766 14.022683299568042 L-9.597118220853304 13.895239406770418 L-9.563519651338302 13.819716328002764 L-9.537182465951352 13.749007685915014 L-9.5178734502425 13.68336806059345 L-9.505385586138061 13.62306974511027 L-9.499479571573787 13.56835938601835 L-9.499908170952025 13.519489717484863 L-9.506425994594235 13.476699452529278 L-9.518775477593302 13.44021143710427 L-9.536683187975298 13.41026069239108 L-9.55990134028562 13.3870499555804 L-9.634720569922875 13.333281906736428 L-10.014125507193453 13.05066244779082 L-10.385312165172413 12.757332718751279 L-10.456612753749997 12.698979087600422 L-10.485041903892634 12.682559455382638 L-10.518606958228734 12.673013758581739 L-10.557047956075113 12.670528867321611 L-10.600067115000687 12.67530806864989 L-10.647382519641177 12.687542474385634 L-10.698700079403721 12.707407329281091 L-10.75371168254777 12.735076032169404 L-10.812117150866174 12.770715894269419 L-10.873599889228023 12.814456405052082 L-10.93785363181188 12.866456942202841 L-11.043637509739613 12.964071524979039 L-11.21697642270028 13.110876170183518 L-11.343425114920962 13.205541320770628 L-11.498357946661754 13.311701922449306 L-11.682416944674376 13.42681076073112 L-11.896645564744997 13.548630225278615 L-12.141956830635369 13.674884137801211 L-12.419709300852146 13.803433428691815 L-12.730125663778418 13.931611487764439 L-13.073979477904219 14.057009662436721 L-13.404029536551626 14.162673204387058 A19.5 19.5 0 0 1 -14.162673204387051 13.404029536551633 L-14.057009662436716 13.073979477904226 L-13.931611487764432 12.730125663778427 L-13.80343342869181 12.419709300852155 L-13.674884137801204 12.141956830635376 L-13.548630225278607 11.896645564745006 L-13.426810760731113 11.682416944674383 L-13.311701922449297 11.49835794666176 L-13.205541320770621 11.343425114920969 L-13.110876170183513 11.216976422700288 L-12.96407152497903 11.043637509739622 L-12.866456942202834 10.937853631811887 L-12.814456405052077 10.87359988922803 L-12.770715894269413 10.81211715086618 L-12.735076032169399 10.753711682547777 L-12.707407329281086 10.698700079403729 L-12.687542474385628 10.647382519641182 L-12.675308068649885 10.600067115000694 L-12.670528867321604 10.557047956075118 L-12.673013758581734 10.518606958228741 L-12.68255945538263 10.485041903892641 L-12.698979087600417 10.456612753750004 L-12.757332718751272 10.38531216517242 L-13.050662447790815 10.01412550719346 L-13.333281906736424 9.634720569922882 L-13.387049955580395 9.559901340285627 L-13.410260692391077 9.536683187975305 L-13.440211437104265 9.518775477593309 L-13.476699452529274 9.506425994594244 L-13.519489717484857 9.499908170952033 L-13.568359386018345 9.499479571573795 L-13.623069745110264 9.505385586138072 L-13.683368060593445 9.517873450242508 L-13.749007685915009 9.537182465951359 L-13.819716328002759 9.563519651338309 L-13.895239406770411 9.59711822085331 L-14.022683299568037 9.664027785106775 L-14.228111670386056 9.760966771397396 L-14.37475287178193 9.81967895542401 L-14.551882880854444 9.882122654753651 L-14.759462580202685 9.945671280376036 L-14.997920734548249 10.007893400446855 L-15.26755013883098 10.066354087631836 L-15.569109427845865 10.118635538537845 L-15.90212353255134 10.162104369522922 L-16.26671624790973 10.19423378918149 L-16.61286786055522 10.210873692233346 A19.5 19.5 0 0 1 -17.149309942585887 9.281728750838196 L-16.961823557503727 8.99027261225218 L-16.751702306191362 8.690590768546349 L-16.547550141932735 8.423926509545414 L-16.351493432793976 8.188909229964354 L-16.166050290427727 7.9846336598407355 L-15.992935276596286 7.809233900473336 L-15.834110702757597 7.661238920339016 L-15.691467868295593 7.53906168237447 L-15.56730102471894 7.441422768737479 L-15.38063521456514 7.311986074096335 L-15.258967885766683 7.235071207503144 L-15.192109131652046 7.186465587475844 L-15.133946138998892 7.138398699854225 L-15.084404228212174 7.091207624685284 L-15.043440262917132 7.04523168372366 L-15.010970324723388 7.000804130182027 L-14.986906668406247 6.958267456068383 L-14.971156136779994 6.917951087761075 L-14.963607095068285 6.880176797969805 L-14.964140254826114 6.845284836994924 L-14.972642396150448 6.813574673121159 L-15.010553725285908 6.72960056209173 L-15.197818309810664 6.29514246240573 L-15.37261052064652 5.855518136382801 L-15.40518182608406 5.7693321151143016 L-15.421592376206695 5.740897721421582 L-15.445887717540712 5.715848378327132 L-15.477936152592436 5.69447590044703 L-15.517581437735563 5.677105230744332 L-15.564674983012438 5.664042834591447 L-15.619049720874758 5.655587523692134 L-15.680525518144568 5.6520435217111515 L-15.748926068478239 5.653705813517938 L-15.824041937185168 5.660844837849307 L-15.90568757912639 5.67375175274037 L-16.046106396110737 5.705396522240509 L-16.269624620801295 5.745863617900816 L-16.42646497583328 5.764621697051993 L-16.613721044840407 5.779093059116373 L-16.830675232055352 5.786750738262228 L-17.07711239152794 5.785135179200465 L-17.352685135884823 5.771818641827026 L-17.657500476501735 5.744269358268377 L-17.990417962082567 5.700066632169914 L-18.350903187639823 5.636737729961411 L-18.689566693924192 5.56322001222054 A19.5 19.5 0 0 1 -18.967249548772163 4.526893489537139 L-18.710717207865628 4.293893525203108 L-18.43019229594833 4.058806474318136 L-18.16397865912052 3.8540670478099255 L-17.91377547246239 3.677800998083618 L-17.68178074394546 3.5284821662493346 L-17.4691676829366 3.4038644713242383 L-17.277451005778122 3.3020191223911057 L-17.10804681197295 3.2209236550626583 L-16.962840040601094 3.158748450617785 L-16.749034031980116 3.0820348711317074 L-16.611605384552245 3.039230636923556 L-16.534444727077325 3.0095855321330887 L-16.46582296438411 2.9782101742088263 L-16.40575520425892 2.94544948597517 L-16.35428760309585 2.911642391593672 L-16.311425354232618 2.8771325086268114 L-16.27717234574502 2.842273369085679 L-16.251523856522137 2.8074072852708314 L-16.23445533655586 2.7728739589589804 L-16.22593962531421 2.739032920824064 L-16.225944868864296 2.7062027384836442 L-16.240830301555214 2.615277801895246 L-16.30926796959918 2.1471558620198508 L-16.364321132014602 1.6772718185494842 L-16.373476013406773 1.585592440570054 L-16.38196802497022 1.5538795624350383 L-16.398952275563104 1.523395657964022 L-16.42437708235531 1.4944566842507216 L-16.458175627020406 1.4674169509213888 L-16.500283701755812 1.4426109387050448 L-16.55061726986172 1.420370517806869 L-16.609081074927783 1.4010361676187304 L-16.675581165805575 1.3849384530838855 L-16.749985238814144 1.3723928036492885 L-16.832189428356447 1.3637284789962716 L-16.9760138592031 1.3579519149971058 L-17.202389540134867 1.3391893543328859 L-17.358740637798473 1.3167149965136635 L-17.543361575092657 1.2822278219031515 L-17.754905180849363 1.2334726963936027 L-17.99252706028758 1.1681295558794769 L-18.25526331759618 1.0839432939630003 L-18.542562048083244 0.9784407140868707 L-18.852695138069258 0.8495787736400209 L-19.18450640143366 0.6951073095939966 L-19.49260244307153 0.5364420820306688 A19.5 19.5 0 0 1 -19.49260244307153 -0.5364420820306579 L-19.18450640143366 -0.6951073095939857 L-18.852695138069258 -0.8495787736400107 L-18.542562048083248 -0.9784407140868603 L-18.25526331759618 -1.08394329396299 L-17.992527060287582 -1.1681295558794664 L-17.75490518084936 -1.2334726963935927 L-17.543361575092657 -1.2822278219031418 L-17.358740637798473 -1.3167149965136535 L-17.202389540134867 -1.3391893543328761 L-16.976013859203103 -1.3579519149970958 L-16.832189428356447 -1.3637284789962623 L-16.749985238814144 -1.372392803649279 L-16.675581165805575 -1.3849384530838762 L-16.609081074927783 -1.401036167618721 L-16.55061726986172 -1.4203705178068597 L-16.500283701755816 -1.4426109387050354 L-16.458175627020406 -1.4674169509213795 L-16.42437708235531 -1.4944566842507125 L-16.398952275563108 -1.5233956579640124 L-16.38196802497022 -1.553879562435029 L-16.373476013406776 -1.5855924405700446 L-16.364321132014602 -1.6772718185494748 L-16.309267969599183 -2.1471558620198414 L-16.240830301555214 -2.615277801895237 L-16.2259448688643 -2.7062027384836354 L-16.22593962531422 -2.7390329208240547 L-16.234455336555865 -2.772873958958971 L-16.251523856522137 -2.8074072852708225 L-16.27717234574502 -2.8422733690856696 L-16.31142535423262 -2.8771325086268016 L-16.35428760309585 -2.911642391593663 L-16.40575520425892 -2.9454494859751605 L-16.46582296438411 -2.978210174208817 L-16.534444727077332 -3.0095855321330793 L-16.611605384552252 -3.0392306369235467 L-16.74903403198012 -3.0820348711316976 L-16.962840040601094 -3.158748450617775 L-17.10804681197295 -3.220923655062649 L-17.277451005778122 -3.302019122391096 L-17.469167682936604 -3.403864471324229 L-17.681780743945463 -3.528482166249325 L-17.913775472462397 -3.6778009980836077 L-18.163978659120524 -3.8540670478099153 L-18.43019229594833 -4.058806474318125 L-18.710717207865628 -4.293893525203098 L-18.967249548772163 -4.5268934895371284 A19.5 19.5 0 0 1 -18.689566693924196 -5.563220012220531 L-18.350903187639826 -5.636737729961401 L-17.99041796208257 -5.7000666321699045 L-17.65750047650174 -5.744269358268367 L-17.352685135884826 -5.771818641827017 L-17.077112391527944 -5.785135179200456 L-16.830675232055356 -5.786750738262219 L-16.613721044840407 -5.779093059116363 L-16.426464975833284 -5.764621697051984 L-16.2696246208013 -5.745863617900808 L-16.04610639611074 -5.7053965222405 L-15.905687579126393 -5.673751752740362 L-15.82404193718517 -5.6608448378492975 L-15.748926068478243 -5.653705813517928 L-15.680525518144572 -5.6520435217111435 L-15.619049720874761 -5.655587523692125 L-15.564674983012441 -5.664042834591439 L-15.517581437735567 -5.677105230744324 L-15.47793615259244 -5.69447590044702 L-15.445887717540716 -5.715848378327124 L-15.421592376206698 -5.740897721421574 L-15.405181826084064 -5.769332115114294 L-15.372610520646523 -5.855518136382793 L-15.197818309810668 -6.295142462405722 L-15.010553725285911 -6.729600562091722 L-14.972642396150452 -6.813574673121151 L-14.964140254826118 -6.845284836994916 L-14.963607095068289 -6.880176797969797 L-14.971156136779998 -6.917951087761067 L-14.98690666840625 -6.958267456068375 L-15.010970324723392 -7.000804130182019 L-15.043440262917136 -7.045231683723651 L-15.084404228212177 -7.091207624685276 L-15.133946138998896 -7.138398699854217 L-15.192109131652051 -7.186465587475836 L-15.258967885766687 -7.235071207503136 L-15.380635214565146 -7.311986074096328 L-15.567301024718946 -7.441422768737471 L-15.691467868295597 -7.539061682374461 L-15.8341107027576 -7.661238920339008 L-15.992935276596292 -7.809233900473327 L-16.16605029042773 -7.984633659840727 L-16.351493432793987 -8.188909229964345 L-16.54755014193274 -8.423926509545403 L-16.751702306191365 -8.69059076854634 L-16.96182355750373 -8.99027261225217 L-17.14930994258589 -9.281728750838187 A19.5 19.5 0 0 1 -16.61286786055523 -10.210873692233324 L-16.266716247909745 -10.19423378918147 L-15.902123532551354 -10.1621043695229 L-15.569109427845877 -10.118635538537827 L-15.267550138830993 -10.066354087631817 L-14.997920734548263 -10.007893400446838 L-14.759462580202698 -9.945671280376017 L-14.551882880854457 -9.882122654753632 L-14.374752871781943 -9.819678955423994 L-14.228111670386069 -9.76096677139738 L-14.02268329956805 -9.664027785106757 L-13.895239406770425 -9.597118220853295 L-13.81971632800277 -9.563519651338291 L-13.74900768591502 -9.537182465951343 L-13.683368060593455 -9.517873450242492 L-13.623069745110275 -9.505385586138052 L-13.568359386018358 -9.499479571573778 L-13.51948971748487 -9.499908170952017 L-13.476699452529285 -9.506425994594226 L-13.440211437104276 -9.518775477593293 L-13.410260692391088 -9.536683187975289 L-13.387049955580407 -9.55990134028561 L-13.333281906736435 -9.634720569922866 L-13.050662447790828 -10.014125507193443 L-12.757332718751286 -10.385312165172405 L-12.69897908760043 -10.456612753749987 L-12.682559455382645 -10.485041903892625 L-12.673013758581748 -10.518606958228725 L-12.670528867321618 -10.557047956075104 L-12.675308068649898 -10.600067115000678 L-12.68754247438564 -10.647382519641168 L-12.7074073292811 -10.698700079403713 L-12.735076032169413 -10.753711682547761 L-12.770715894269427 -10.812117150866165 L-12.814456405052091 -10.873599889228016 L-12.866456942202849 -10.93785363181187 L-12.964071524979046 -11.043637509739604 L-13.110876170183525 -11.216976422700272 L-13.205541320770635 -11.343425114920953 L-13.311701922449313 -11.498357946661743 L-13.42681076073113 -11.682416944674367 L-13.548630225278622 -11.896645564744988 L-13.67488413780122 -12.14195683063536 L-13.803433428691825 -12.419709300852137 L-13.931611487764446 -12.73012566377841 L-14.057009662436732 -13.073979477904208 L-14.162673204387067 -13.404029536551615 A19.5 19.5 0 0 1 -13.40402953655163 -14.162673204387053 L-13.073979477904224 -14.057009662436718 L-12.730125663778425 -13.931611487764433 L-12.419709300852153 -13.803433428691811 L-12.141956830635374 -13.674884137801206 L-11.896645564745004 -13.54863022527861 L-11.682416944674381 -13.426810760731115 L-11.49835794666176 -13.3117019224493 L-11.343425114920967 -13.205541320770624 L-11.216976422700286 -13.110876170183515 L-11.04363750973962 -12.964071524979033 L-10.937853631811885 -12.866456942202836 L-10.873599889228029 -12.814456405052079 L-10.812117150866179 -12.770715894269415 L-10.753711682547776 -12.7350760321694 L-10.698700079403727 -12.707407329281088 L-10.64738251964118 -12.68754247438563 L-10.600067115000693 -12.675308068649887 L-10.557047956075117 -12.670528867321607 L-10.51860695822874 -12.673013758581735 L-10.48504190389264 -12.682559455382632 L-10.456612753750003 -12.698979087600419 L-10.385312165172419 -12.757332718751274 L-10.014125507193459 -13.050662447790817 L-9.63472056992288 -13.333281906736426 L-9.559901340285625 -13.387049955580396 L-9.536683187975303 -13.410260692391079 L-9.518775477593307 -13.440211437104267 L-9.506425994594242 -13.476699452529274 L-9.49990817095203 -13.51948971748486 L-9.499479571573794 -13.568359386018347 L-9.50538558613807 -13.623069745110266 L-9.517873450242506 -13.683368060593446 L-9.537182465951357 -13.74900768591501 L-9.563519651338307 -13.81971632800276 L-9.597118220853309 -13.895239406770413 L-9.664027785106773 -14.022683299568037 L-9.760966771397394 -14.228111670386058 L-9.819678955424008 -14.374752871781933 L-9.882122654753648 -14.551882880854448 L-9.945671280376034 -14.759462580202687 L-10.007893400446854 -14.99792073454825 L-10.066354087631835 -15.267550138830982 L-10.118635538537843 -15.569109427845866 L-10.16210436952292 -15.902123532551341 L-10.194233789181489 -16.266716247909734 L-10.210873692233342 -16.61286786055522 A19.5 19.5 0 0 1 -9.281728750838202 -17.149309942585884 L-8.990272612252184 -16.96182355750372 L-8.690590768546354 -16.75170230619136 L-8.423926509545417 -16.54755014193273 L-8.18890922996436 -16.351493432793976 L-7.984633659840741 -16.166050290427723 L-7.809233900473341 -15.992935276596283 L-7.66123892033902 -15.834110702757593 L-7.5390616823744745 -15.69146786829559 L-7.4414227687374845 -15.567301024718939 L-7.31198607409634 -15.380635214565139 L-7.235071207503149 -15.258967885766682 L-7.1864655874758485 -15.192109131652044 L-7.138398699854229 -15.13394613899889 L-7.091207624685287 -15.084404228212172 L-7.045231683723665 -15.04344026291713 L-7.000804130182032 -15.010970324723386 L-6.958267456068389 -14.986906668406244 L-6.91795108776108 -14.971156136779992 L-6.88017679796981 -14.963607095068282 L-6.845284836994929 -14.964140254826113 L-6.813574673121163 -14.972642396150446 L-6.7296005620917345 -15.010553725285906 L-6.295142462405735 -15.197818309810662 L-5.8555181363828055 -15.372610520646518 L-5.769332115114306 -15.405181826084059 L-5.740897721421587 -15.421592376206693 L-5.715848378327136 -15.445887717540712 L-5.694475900447034 -15.477936152592434 L-5.6771052307443375 -15.517581437735563 L-5.664042834591451 -15.564674983012436 L-5.655587523692138 -15.619049720874756 L-5.652043521711157 -15.680525518144567 L-5.653705813517942 -15.748926068478237 L-5.660844837849312 -15.824041937185166 L-5.673751752740375 -15.905687579126388 L-5.705396522240513 -16.046106396110737 L-5.745863617900821 -16.269624620801295 L-5.7646216970519975 -16.426464975833277 L-5.779093059116377 -16.613721044840403 L-5.786750738262233 -16.83067523205535 L-5.78513517920047 -17.077112391527944 L-5.771818641827032 -17.352685135884823 L-5.744269358268382 -17.65750047650173 L-5.70006663216992 -17.990417962082564 L-5.636737729961417 -18.350903187639823 L-5.563220012220547 -18.68956669392419 A19.5 19.5 0 0 1 -4.526893489537136 -18.967249548772163 L-4.293893525203106 -18.710717207865628 L-4.058806474318133 -18.43019229594833 L-3.854067047809923 -18.16397865912052 L-3.6778009980836153 -17.91377547246239 L-3.528482166249332 -17.68178074394546 L-3.403864471324236 -17.4691676829366 L-3.3020191223911035 -17.277451005778122 L-3.2209236550626565 -17.10804681197295 L-3.1587484506177823 -16.962840040601094 L-3.0820348711317047 -16.749034031980116 L-3.0392306369235538 -16.611605384552245 L-3.0095855321330864 -16.534444727077325 L-2.978210174208824 -16.46582296438411 L-2.9454494859751676 -16.40575520425892 L-2.9116423915936696 -16.35428760309585 L-2.8771325086268087 -16.311425354232618 L-2.8422733690856767 -16.27717234574502 L-2.8074072852708287 -16.251523856522137 L-2.7728739589589777 -16.23445533655586 L-2.739032920824062 -16.22593962531421 L-2.7062027384836425 -16.225944868864296 L-2.615277801895244 -16.240830301555214 L-2.147155862019848 -16.30926796959918 L-1.677271818549482 -16.364321132014602 L-1.5855924405700519 -16.373476013406773 L-1.553879562435036 -16.38196802497022 L-1.5233956579640198 -16.398952275563104 L-1.4944566842507194 -16.42437708235531 L-1.4674169509213866 -16.458175627020406 L-1.4426109387050425 -16.500283701755812 L-1.4203705178068664 -16.55061726986172 L-1.4010361676187282 -16.609081074927783 L-1.3849384530838833 -16.675581165805575 L-1.3723928036492863 -16.749985238814144 L-1.3637284789962694 -16.832189428356447 L-1.357951914997103 -16.9760138592031 L-1.3391893543328832 -17.202389540134867 L-1.3167149965136613 -17.358740637798473 L-1.2822278219031493 -17.543361575092657 L-1.2334726963936005 -17.754905180849363 L-1.1681295558794742 -17.99252706028758 L-1.0839432939629976 -18.25526331759618 L-0.9784407140868681 -18.542562048083244 L-0.8495787736400182 -18.852695138069258 L-0.6951073095939939 -19.18450640143366 L-0.5364420820306661 -19.49260244307153 A19.5 19.5 0 0 1 0.536442082030661 -19.49260244307153 L0.6951073095939888 -19.18450640143366 L0.8495787736400138 -18.852695138069258 L0.9784407140868634 -18.542562048083248 L1.0839432939629932 -18.25526331759618 L1.1681295558794695 -17.992527060287582 L1.2334726963935958 -17.75490518084936 L1.2822278219031449 -17.543361575092657 L1.3167149965136566 -17.358740637798473 L1.3391893543328792 -17.202389540134867 L1.3579519149970989 -16.976013859203103 L1.3637284789962654 -16.832189428356447 L1.3723928036492816 -16.749985238814144 L1.3849384530838793 -16.675581165805575 L1.4010361676187242 -16.609081074927783 L1.4203705178068624 -16.55061726986172 L1.4426109387050385 -16.500283701755816 L1.4674169509213826 -16.458175627020406 L1.4944566842507152 -16.42437708235531 L1.523395657964015 -16.398952275563108 L1.5538795624350321 -16.38196802497022 L1.5855924405700472 -16.373476013406776 L1.677271818549478 -16.364321132014602 L2.147155862019844 -16.309267969599183 L2.61527780189524 -16.240830301555214 L2.706202738483638 -16.2259448688643 L2.739032920824058 -16.22593962531422 L2.7728739589589737 -16.234455336555865 L2.807407285270825 -16.251523856522137 L2.8422733690856727 -16.27717234574502 L2.877132508626805 -16.31142535423262 L2.9116423915936656 -16.35428760309585 L2.9454494859751637 -16.40575520425892 L2.97821017420882 -16.46582296438411 L3.009585532133082 -16.534444727077332 L3.0392306369235498 -16.611605384552252 L3.0820348711317007 -16.74903403198012 L3.1587484506177783 -16.962840040601094 L3.220923655062652 -17.10804681197295 L3.302019122391099 -17.277451005778122 L3.4038644713242316 -17.469167682936604 L3.528482166249328 -17.681780743945463 L3.677800998083611 -17.913775472462397 L3.8540670478099184 -18.163978659120524 L4.0588064743181285 -18.43019229594833 L4.293893525203101 -18.710717207865628 L4.526893489537132 -18.967249548772163 A19.5 19.5 0 0 1 5.563220012220525 -18.689566693924192 L5.636737729961395 -18.35090318763983 L5.700066632169898 -17.99041796208257 L5.744269358268362 -17.65750047650174 L5.771818641827012 -17.352685135884826 L5.78513517920045 -17.077112391527947 L5.7867507382622145 -16.83067523205536 L5.779093059116358 -16.613721044840407 L5.764621697051979 -16.426464975833287 L5.7458636179008025 -16.269624620801302 L5.705396522240495 -16.046106396110744 L5.673751752740357 -15.905687579126395 L5.660844837849293 -15.824041937185171 L5.653705813517924 -15.748926068478244 L5.652043521711138 -15.680525518144574 L5.65558752369212 -15.619049720874763 L5.664042834591434 -15.564674983012441 L5.67710523074432 -15.517581437735569 L5.694475900447015 -15.477936152592441 L5.715848378327119 -15.445887717540717 L5.74089772142157 -15.4215923762067 L5.769332115114289 -15.405181826084066 L5.855518136382789 -15.372610520646525 L6.2951424624057175 -15.19781830981067 L6.729600562091718 -15.010553725285913 L6.813574673121146 -14.972642396150453 L6.845284836994912 -14.96414025482612 L6.880176797969793 -14.96360709506829 L6.917951087761063 -14.97115613678 L6.958267456068371 -14.986906668406252 L7.000804130182015 -15.010970324723395 L7.045231683723648 -15.043440262917137 L7.09120762468527 -15.084404228212179 L7.138398699854212 -15.133946138998898 L7.186465587475832 -15.192109131652053 L7.235071207503132 -15.258967885766689 L7.311986074096323 -15.380635214565148 L7.441422768737466 -15.567301024718947 L7.539061682374458 -15.691467868295602 L7.661238920339002 -15.8341107027576 L7.809233900473322 -15.992935276596295 L7.984633659840721 -16.166050290427734 L8.188909229964342 -16.351493432793987 L8.4239265095454 -16.54755014193274 L8.690590768546334 -16.751702306191365 L8.990272612252166 -16.961823557503735 L9.281728750838182 -17.149309942585894 A19.5 19.5 0 0 1 10.210873692233337 -16.612867860555223 L10.194233789181482 -16.266716247909734 L10.162104369522915 -15.902123532551345 L10.118635538537838 -15.569109427845868 L10.066354087631831 -15.267550138830986 L10.007893400446848 -14.997920734548254 L9.945671280376029 -14.759462580202689 L9.882122654753644 -14.55188288085445 L9.819678955424004 -14.374752871781935 L9.76096677139739 -14.22811167038606 L9.66402778510677 -14.022683299568039 L9.597118220853305 -13.895239406770417 L9.563519651338304 -13.819716328002762 L9.537182465951354 -13.749007685915013 L9.517873450242503 -13.683368060593448 L9.505385586138065 -13.623069745110268 L9.49947957157379 -13.568359386018349 L9.499908170952027 -13.519489717484861 L9.506425994594238 -13.476699452529276 L9.518775477593303 -13.440211437104269 L9.5366831879753 -13.41026069239108 L9.559901340285622 -13.387049955580398 L9.634720569922877 -13.333281906736428 L10.014125507193455 -13.050662447790819 L10.385312165172415 -12.757332718751275 L10.456612753749999 -12.69897908760042 L10.485041903892636 -12.682559455382634 L10.518606958228736 -12.673013758581737 L10.557047956075113 -12.67052886732161 L10.600067115000689 -12.675308068649889 L10.647382519641177 -12.687542474385632 L10.698700079403721 -12.70740732928109 L10.753711682547772 -12.735076032169403 L10.812117150866175 -12.770715894269417 L10.873599889228025 -12.81445640505208 L10.937853631811882 -12.86645694220284 L11.043637509739616 -12.964071524979035 L11.216976422700283 -13.110876170183516 L11.343425114920963 -13.205541320770626 L11.498357946661756 -13.311701922449302 L11.682416944674376 -13.426810760731117 L11.896645564744999 -13.548630225278613 L12.14195683063537 -13.67488413780121 L12.419709300852148 -13.803433428691813 L12.73012566377842 -13.931611487764437 L13.07397947790422 -14.05700966243672 L13.404029536551628 -14.162673204387055 A19.5 19.5 0 0 1 14.162673204387051 -13.40402953655163 L14.057009662436716 -13.073979477904224 L13.931611487764432 -12.730125663778425 L13.80343342869181 -12.419709300852153 L13.674884137801204 -12.141956830635374 L13.548630225278607 -11.896645564745004 L13.426810760731113 -11.682416944674381 L13.311701922449297 -11.49835794666176 L13.205541320770621 -11.343425114920967 L13.110876170183513 -11.216976422700286 L12.96407152497903 -11.04363750973962 L12.866456942202834 -10.937853631811885 L12.814456405052077 -10.873599889228029 L12.770715894269413 -10.812117150866179 L12.735076032169399 -10.753711682547776 L12.707407329281086 -10.698700079403727 L12.687542474385628 -10.64738251964118 L12.675308068649885 -10.600067115000693 L12.670528867321604 -10.557047956075117 L12.673013758581734 -10.51860695822874 L12.68255945538263 -10.48504190389264 L12.698979087600417 -10.456612753750003 L12.757332718751272 -10.385312165172419 L13.050662447790815 -10.014125507193459 L13.333281906736424 -9.63472056992288 L13.387049955580395 -9.559901340285625 L13.410260692391077 -9.536683187975303 L13.440211437104265 -9.518775477593307 L13.476699452529274 -9.506425994594242 L13.519489717484857 -9.49990817095203 L13.568359386018345 -9.499479571573794 L13.623069745110264 -9.50538558613807 L13.683368060593445 -9.517873450242506 L13.749007685915009 -9.537182465951357 L13.819716328002759 -9.563519651338307 L13.895239406770411 -9.597118220853309 L14.022683299568037 -9.664027785106773 L14.228111670386056 -9.760966771397394 L14.37475287178193 -9.819678955424008 L14.551882880854444 -9.882122654753648 L14.759462580202685 -9.945671280376034 L14.997920734548249 -10.007893400446854 L15.26755013883098 -10.066354087631835 L15.569109427845865 -10.118635538537843 L15.90212353255134 -10.16210436952292 L16.26671624790973 -10.194233789181489 L16.61286786055522 -10.210873692233342 A19.5 19.5 0 0 1 17.149309942585884 -9.281728750838202 L16.96182355750372 -8.990272612252186 L16.75170230619136 -8.690590768546354 L16.54755014193273 -8.423926509545419 L16.351493432793976 -8.188909229964361 L16.166050290427723 -7.984633659840741 L15.992935276596283 -7.809233900473342 L15.834110702757593 -7.661238920339021 L15.69146786829559 -7.539061682374475 L15.567301024718939 -7.441422768737485 L15.380635214565139 -7.311986074096342 L15.258967885766682 -7.23507120750315 L15.192109131652044 -7.186465587475849 L15.13394613899889 -7.13839869985423 L15.084404228212172 -7.091207624685289 L15.04344026291713 -7.0452316837236655 L15.010970324723386 -7.000804130182033 L14.986906668406244 -6.9582674560683895 L14.971156136779992 -6.917951087761081 L14.963607095068282 -6.880176797969811 L14.964140254826113 -6.84528483699493 L14.972642396150444 -6.813574673121164 L15.010553725285906 -6.729600562091735 L15.197818309810662 -6.295142462405736 L15.372610520646518 -5.855518136382806 L15.40518182608406 -5.769332115114307 L15.421592376206693 -5.740897721421588 L15.445887717540712 -5.715848378327137 L15.477936152592434 -5.694475900447035 L15.517581437735563 -5.677105230744338 L15.564674983012436 -5.664042834591452 L15.619049720874756 -5.655587523692139 L15.680525518144567 -5.652043521711157 L15.748926068478237 -5.653705813517943 L15.824041937185166 -5.660844837849313 L15.905687579126388 -5.673751752740376 L16.046106396110737 -5.705396522240515 L16.269624620801295 -5.745863617900822 L16.426464975833277 -5.764621697051998 L16.613721044840403 -5.779093059116378 L16.83067523205535 -5.786750738262234 L17.077112391527944 -5.785135179200472 L17.352685135884823 -5.771818641827032 L17.65750047650173 -5.744269358268383 L17.990417962082564 -5.700066632169921 L18.350903187639823 -5.636737729961418 L18.68956669392419 -5.5632200122205475 A19.5 19.5 0 0 1 18.967249548772163 -4.526893489537136 Z" id="SvgjsPath1282">
        </path>
      </g>
    </g>
  </g>
</svg>
